<svg xmlns="http://www.w3.org/2000/svg" xmlns:xlink="http://www.w3.org/1999/xlink" contentStyleType="text/css" data-diagram-type="DESCRIPTION" height="502px" preserveAspectRatio="none" style="width:646px;height:502px;background:#FFFFFF;" version="1.1" viewBox="0 0 646 502" width="646px" zoomAndPan="magnify"><defs/><g><!--cluster internal/workflow (the poll and the steps)--><g class="cluster" data-entity="internal.workflow .the poll and the steps." data-source-line="4" data-uid="ent0002" id="cluster_internal.workflow .the poll and the steps."><path d="M19.64,376 L351.055,376 A3.75,3.75 0 0 1 353.555,378.5 L360.555,398.2969 L620.05,398.2969 A2.5,2.5 0 0 1 622.55,400.7969 L622.55,492.5 A2.5,2.5 0 0 1 620.05,495 L19.64,495 A2.5,2.5 0 0 1 17.14,492.5 L17.14,378.5 A2.5,2.5 0 0 1 19.64,376" fill="none" style="stroke:#000000;stroke-width:1.5;"/><line style="stroke:#000000;stroke-width:1.5;" x1="17.14" x2="360.555" y1="398.2969" y2="398.2969"/><text fill="#000000" font-family="sans-serif" font-size="14" font-weight="bold" lengthAdjust="spacing" textLength="330.415" x="21.14" y="390.9951">internal/workflow (the poll and the steps)</text></g><!--cluster internal/workflow (the pure rules)--><g class="cluster" data-entity="internal.workflow .the pure rules." data-source-line="9" data-uid="ent0006" id="cluster_internal.workflow .the pure rules."><path d="M8.5,149 L278.3506,149 A3.75,3.75 0 0 1 280.8506,151.5 L287.8506,171.2969 L636.99,171.2969 A2.5,2.5 0 0 1 639.49,173.7969 L639.49,283.5 A2.5,2.5 0 0 1 636.99,286 L8.5,286 A2.5,2.5 0 0 1 6,283.5 L6,151.5 A2.5,2.5 0 0 1 8.5,149" fill="none" style="stroke:#000000;stroke-width:1.5;"/><line style="stroke:#000000;stroke-width:1.5;" x1="6" x2="287.8506" y1="171.2969" y2="171.2969"/><text fill="#000000" font-family="sans-serif" font-size="14" font-weight="bold" lengthAdjust="spacing" textLength="268.8506" x="10" y="163.9951">internal/workflow (the pure rules)</text></g><!--cluster internal/agent (the adapter of Claude Code)--><g class="cluster" data-entity="internal.agent .the adapter of Claude Code." data-source-line="14" data-uid="ent0010" id="cluster_internal.agent .the adapter of Claude Code."><path d="M18.94,6 L367.2193,6 A3.75,3.75 0 0 1 369.7193,8.5 L376.7193,28.2969 L616.72,28.2969 A2.5,2.5 0 0 1 619.22,30.7969 L619.22,122.5 A2.5,2.5 0 0 1 616.72,125 L18.94,125 A2.5,2.5 0 0 1 16.44,122.5 L16.44,8.5 A2.5,2.5 0 0 1 18.94,6" fill="none" style="stroke:#000000;stroke-width:1.5;"/><line style="stroke:#000000;stroke-width:1.5;" x1="16.44" x2="376.7193" y1="28.2969" y2="28.2969"/><text fill="#000000" font-family="sans-serif" font-size="14" font-weight="bold" lengthAdjust="spacing" textLength="347.2793" x="20.44" y="20.9951">internal/agent (the adapter of Claude Code)</text></g><!--entity wfpoll--><g class="entity" data-entity="wfpoll" data-source-line="5" data-uid="ent0003" id="entity_wfpoll"><path d="M33.14,413.05 L33.14,476.9406 A2.5,2.5 0 0 0 35.64,479.4406 L288.7494,479.4406 A2.5,2.5 0 0 0 291.2494,476.9406 L291.2494,420.55 L281.2494,410.55 L35.64,410.55 A2.5,2.5 0 0 0 33.14,413.05" fill="#F1F1F1" style="stroke:#181818;stroke-width:0.5;"/><path d="M281.2494,410.55 L281.2494,418.05 A2.5,2.5 0 0 0 283.7494,420.55 L291.2494,420.55" fill="#F1F1F1" style="stroke:#181818;stroke-width:0.5;"/><text fill="#000000" font-family="sans-serif" font-size="14" lengthAdjust="spacing" textLength="47.1338" x="43.14" y="433.5451">poll.go</text><text fill="#000000" font-family="sans-serif" font-size="14" lengthAdjust="spacing" textLength="238.1094" x="43.14" y="449.842">one poll: the labels, the snapshot,</text><text fill="#000000" font-family="sans-serif" font-size="14" lengthAdjust="spacing" textLength="193.4912" x="43.14" y="466.1389">the actions (pollRepository)</text></g><!--entity wfconvert--><g class="entity" data-entity="wfconvert" data-source-line="6" data-uid="ent0004" id="entity_wfconvert"><path d="M379.32,413.05 L379.32,476.9406 A2.5,2.5 0 0 0 381.82,479.4406 L604.0514,479.4406 A2.5,2.5 0 0 0 606.5514,476.9406 L606.5514,420.55 L596.5514,410.55 L381.82,410.55 A2.5,2.5 0 0 0 379.32,413.05" fill="#F1F1F1" style="stroke:#D62728;stroke-width:2;"/><path d="M596.5514,410.55 L596.5514,418.05 A2.5,2.5 0 0 0 599.0514,420.55 L606.5514,420.55" fill="#F1F1F1" style="stroke:#D62728;stroke-width:2;"/><text fill="#D62728" font-family="sans-serif" font-size="14" font-weight="bold" lengthAdjust="spacing" textLength="85.0596" x="389.32" y="433.5451">convert.go</text><text fill="#D62728" font-family="sans-serif" font-size="14" lengthAdjust="spacing" textLength="207.2314" x="389.32" y="449.842">the types of the GitHub client</text><text fill="#D62728" font-family="sans-serif" font-size="14" lengthAdjust="spacing" textLength="168.7451" x="389.32" y="466.1389">to the types of the rules</text></g><!--entity wfdomain--><g class="entity" data-entity="wfdomain" data-source-line="10" data-uid="ent0007" id="entity_wfdomain"><path d="M22,186.91 L22,267.0975 A2.5,2.5 0 0 0 24.5,269.5975 L299.8809,269.5975 A2.5,2.5 0 0 0 302.3809,267.0975 L302.3809,194.41 L292.3809,184.41 L24.5,184.41 A2.5,2.5 0 0 0 22,186.91" fill="#F1F1F1" style="stroke:#181818;stroke-width:0.5;"/><path d="M292.3809,184.41 L292.3809,191.91 A2.5,2.5 0 0 0 294.8809,194.41 L302.3809,194.41" fill="#F1F1F1" style="stroke:#181818;stroke-width:0.5;"/><text fill="#000000" font-family="sans-serif" font-size="14" lengthAdjust="spacing" textLength="74.334" x="32" y="207.4051">domain.go</text><text fill="#000000" font-family="sans-serif" font-size="14" lengthAdjust="spacing" textLength="260.3809" x="32" y="223.702">the label names, the snapshot types,</text><text fill="#000000" font-family="sans-serif" font-size="14" lengthAdjust="spacing" textLength="175.3691" x="32" y="239.9989">the action types, Decide,</text><text fill="#000000" font-family="sans-serif" font-size="14" lengthAdjust="spacing" textLength="154.7246" x="32" y="256.2957">the order of the starts</text></g><!--entity wfrequirementrules--><g class="entity" data-entity="wfrequirementrules" data-source-line="11" data-uid="ent0008" id="entity_wfrequirementrules"><path d="M362.38,186.91 L362.38,267.0975 A2.5,2.5 0 0 0 364.88,269.5975 L620.9904,269.5975 A2.5,2.5 0 0 0 623.4904,267.0975 L623.4904,194.41 L613.4904,184.41 L364.88,184.41 A2.5,2.5 0 0 0 362.38,186.91" fill="#F1F1F1" style="stroke:#D62728;stroke-width:2;"/><path d="M613.4904,184.41 L613.4904,191.91 A2.5,2.5 0 0 0 615.9904,194.41 L623.4904,194.41" fill="#F1F1F1" style="stroke:#D62728;stroke-width:2;"/><text fill="#D62728" font-family="sans-serif" font-size="14" font-weight="bold" lengthAdjust="spacing" textLength="162.7842" x="372.38" y="207.4051">requirementrules.go</text><text fill="#D62728" font-family="sans-serif" font-size="14" lengthAdjust="spacing" textLength="241.1104" x="372.38" y="223.702">the moves of a requirement issue,</text><text fill="#D62728" font-family="sans-serif" font-size="14" lengthAdjust="spacing" textLength="179.3271" x="372.38" y="239.9989">SplitEnd, AcceptanceEnd,</text><text fill="#D62728" font-family="sans-serif" font-size="14" lengthAdjust="spacing" textLength="110.9814" x="372.38" y="256.2957">the status actor</text></g><!--entity claudecode--><g class="entity" data-entity="claudecode" data-source-line="15" data-uid="ent0011" id="entity_claudecode"><path d="M32.44,43.05 L32.44,106.9406 A2.5,2.5 0 0 0 34.94,109.4406 L289.4371,109.4406 A2.5,2.5 0 0 0 291.9371,106.9406 L291.9371,50.55 L281.9371,40.55 L34.94,40.55 A2.5,2.5 0 0 0 32.44,43.05" fill="#F1F1F1" style="stroke:#D62728;stroke-width:2;"/><path d="M281.9371,40.55 L281.9371,48.05 A2.5,2.5 0 0 0 284.4371,50.55 L291.9371,50.55" fill="#F1F1F1" style="stroke:#D62728;stroke-width:2;"/><text fill="#D62728" font-family="sans-serif" font-size="14" font-weight="bold" lengthAdjust="spacing" textLength="114.4199" x="42.44" y="63.5451">claudecode.go</text><text fill="#D62728" font-family="sans-serif" font-size="14" lengthAdjust="spacing" textLength="239.4971" x="42.44" y="79.842">the run of the CLI: the arguments,</text><text fill="#D62728" font-family="sans-serif" font-size="14" lengthAdjust="spacing" textLength="179.9971" x="42.44" y="96.1389">the stream, the time limit</text></g><!--entity startrecord--><g class="entity" data-entity="startrecord" data-source-line="16" data-uid="ent0012" id="entity_startrecord"><path d="M382.65,43.05 L382.65,106.9406 A2.5,2.5 0 0 0 385.15,109.4406 L600.7164,109.4406 A2.5,2.5 0 0 0 603.2164,106.9406 L603.2164,50.55 L593.2164,40.55 L385.15,40.55 A2.5,2.5 0 0 0 382.65,43.05" fill="#F1F1F1" style="stroke:#181818;stroke-width:0.5;"/><path d="M593.2164,40.55 L593.2164,48.05 A2.5,2.5 0 0 0 595.7164,50.55 L603.2164,50.55" fill="#F1F1F1" style="stroke:#181818;stroke-width:0.5;"/><text fill="#000000" font-family="sans-serif" font-size="14" lengthAdjust="spacing" textLength="99.7842" x="392.65" y="63.5451">startrecord.go</text><text fill="#000000" font-family="sans-serif" font-size="14" lengthAdjust="spacing" textLength="200.5664" x="392.65" y="79.842">the check of the start record</text><text fill="#000000" font-family="sans-serif" font-size="14" lengthAdjust="spacing" textLength="195.7949" x="392.65" y="96.1389">and the JSON shape helpers</text></g><g class="entity" data-entity="GMN14" data-source-line="20" data-uid="ent0015" id="entity_GMN14"><path d="M378.32,304.3 L378.32,359.6984 A0,0 0 0 0 378.32,359.6984 L488.94,359.6984 L492.94,410.13 L496.94,359.6984 L607.5612,359.6984 A0,0 0 0 0 607.5612,359.6984 L607.5612,314.3 L597.5612,304.3 L378.32,304.3 A0,0 0 0 0 378.32,304.3" fill="#FEFFDD" style="stroke:#181818;stroke-width:0.5;"/><path d="M597.5612,304.3 L597.5612,314.3 L607.5612,314.3 L597.5612,304.3" fill="#FEFFDD" style="stroke:#181818;stroke-width:0.5;"/><text fill="#000000" font-family="sans-serif" font-size="13" lengthAdjust="spacing" textLength="208.2412" x="384.32" y="321.3669">Comments only, in the red files.</text><text fill="#000000" font-family="sans-serif" font-size="13" lengthAdjust="spacing" textLength="193.8765" x="384.32" y="336.4997">Also: internal/quota/stored.go</text><text fill="#000000" font-family="sans-serif" font-size="13" lengthAdjust="spacing" textLength="127.2007" x="384.32" y="351.6325">and three test files.</text></g><!--link wfpoll to wfconvert--><g class="link" data-entity-1="wfpoll" data-entity-2="wfconvert" data-source-line="8" data-uid="lnk5" id="link_wfpoll_wfconvert"><path d="M291.7,445 C320.52,445 344.88,445 373,445" fill="none" id="wfpoll-to-wfconvert" style="stroke:#181818;stroke-width:1;"/><polygon fill="#181818" points="379,445,370,441,374,445,370,449,379,445" style="stroke:#181818;stroke-width:1;"/></g><!--link wfdomain to wfrequirementrules--><g class="link" data-entity-1="wfdomain" data-entity-2="wfrequirementrules" data-source-line="13" data-uid="lnk9" id="link_wfdomain_wfrequirementrules"><path d="M302.61,227 C322.3,227 336.47,227 355.97,227" fill="none" id="wfdomain-to-wfrequirementrules" style="stroke:#181818;stroke-width:1;"/><polygon fill="#181818" points="361.97,227,352.97,223,356.97,227,352.97,231,361.97,227" style="stroke:#181818;stroke-width:1;"/></g><!--link claudecode to startrecord--><g class="link" data-entity-1="claudecode" data-entity-2="startrecord" data-source-line="18" data-uid="lnk13" id="link_claudecode_startrecord"><path d="M292.18,75 C321.95,75 347.34,75 376.2,75" fill="none" id="claudecode-to-startrecord" style="stroke:#181818;stroke-width:1;"/><polygon fill="#181818" points="382.2,75,373.2,71,377.2,75,373.2,79,382.2,75" style="stroke:#181818;stroke-width:1;"/></g><!--SRC=[ZPDDRzim38Rl_XL4T-c0V00zR4DR12ZIVMBeWFMQ2sFHiH1PT4MwMJ3ilq-odCyEM6-IIF5z-L2IjVKj1cn0QZIyiNu55JgXGlOHGnLsJZ-nrmTi20IzZ8M2hGf7bO8o1Bkg5OmDLAfbNxHOhd55S66zKl3efXiEwyhn1Ywr9cZPEK1l86r4gPMt5_2x0AYiYxTIUBBYXMUVSw_xH8TBSZBAbposKhEE5ZvjiTSLk4pPFwbbiSfX6wkYmAPAf_lgjyjPoVwPWaQDs-bobalejYK1hlhodwr-wPPGEajUOvpXHKhe7CbGVwW7RvprT7t_xkhzrOURj9uisPaRfLywd1P_Ycm7nkFPuUR_YNLXa3mXPRX1wtjMUqBWuvJEC6Nh9x268xYdqXeQGXmCXLs7eXXqrs9MEeOOwAcB4syYeTxO2Ss6dpCgXACyi29TqdfidTMFtepWhYofLVGbfMs-78Mra-IJmo1_BlPQrDds0Fkyo3-enrsqsID7Wwrc6dE7dI6Oiw4J_EafzQ4oHaxw3vtVOPn__vhVBuPLbxHbtsOWRFAWrCQVvMnZjM_uKFKrZUxiz0EBVp1ESVyaofhAzSb48MSi_Eu3VdlyyP3-VqjGasifv9aVLOieZnmbcCT1pqgmP5Lkaj3XKKCarlGT0tkt7K6SH0-7JEzO9Z7bpWbVmtu0JnqhJYLEdb8JCI7R31GXaUZk8iNJ9FmN]--></g></svg>