<svg xmlns="http://www.w3.org/2000/svg" xmlns:xlink="http://www.w3.org/1999/xlink" contentStyleType="text/css" data-diagram-type="STATE" height="783px" preserveAspectRatio="none" style="width:1061px;height:783px;background:#FFFFFF;" version="1.1" viewBox="0 0 1061 783" width="1061px" zoomAndPan="magnify"><defs/><g><rect fill="#F1F1F1" height="42.5938" rx="12.5" ry="12.5" style="stroke:#181818;stroke-width:0.5;" width="118.9234" x="301.63" y="118"/><text fill="#000000" font-family="sans-serif" font-size="14" lengthAdjust="spacing" textLength="55.9998" x="306.63" y="135.9951">&#25552;&#20986;&#28168;&#12415;</text><text fill="#000000" font-family="sans-serif" font-size="14" lengthAdjust="spacing" textLength="108.9234" x="306.63" y="152.292">(&#29366;&#24907;&#12521;&#12505;&#12523;&#12394;&#12375;)</text><rect fill="#F1F1F1" height="40" rx="12.5" ry="12.5" style="stroke:#181818;stroke-width:0.5;" width="145.543" x="33.32" y="489.19"/><text fill="#000000" font-family="sans-serif" font-size="14" lengthAdjust="spacing" textLength="135.543" x="38.32" y="514.0367">cumin/status/ready</text><rect fill="#F1F1F1" height="40" rx="12.5" ry="12.5" style="stroke:#181818;stroke-width:0.5;" width="166.1738" x="278" y="237.59"/><text fill="#000000" font-family="sans-serif" font-size="14" lengthAdjust="spacing" textLength="156.1738" x="283" y="262.4367">cumin/status/planning</text><rect fill="#F1F1F1" height="42.5938" rx="12.5" ry="12.5" style="stroke:#181818;stroke-width:0.5;" width="265.0283" x="534.58" y="354.59"/><text fill="#000000" font-family="sans-serif" font-size="14" lengthAdjust="spacing" textLength="255.0283" x="539.58" y="372.5851">cumin/status/awaiting-owner-review</text><text fill="#000000" font-family="sans-serif" font-size="14" lengthAdjust="spacing" textLength="108.9234" x="539.58" y="388.882">(&#20998;&#21106;&#32080;&#26524;&#12398;&#30906;&#35469;)</text><rect fill="#F1F1F1" height="40" rx="12.5" ry="12.5" style="stroke:#181818;stroke-width:0.5;" width="202.6025" x="565.79" y="489.19"/><text fill="#000000" font-family="sans-serif" font-size="14" lengthAdjust="spacing" textLength="192.6025" x="570.79" y="514.0367">cumin/status/implementing</text><rect fill="#F1F1F1" height="42.5938" rx="12.5" ry="12.5" style="stroke:#181818;stroke-width:0.5;" width="265.0283" x="534.58" y="621.19"/><text fill="#000000" font-family="sans-serif" font-size="14" lengthAdjust="spacing" textLength="255.0283" x="539.58" y="639.1851">cumin/status/awaiting-owner-review</text><text fill="#000000" font-family="sans-serif" font-size="14" lengthAdjust="spacing" textLength="108.9234" x="539.58" y="655.482">(&#21463;&#12369;&#20837;&#12428;&#12398;&#30906;&#35469;)</text><rect fill="#F1F1F1" height="40" rx="12.5" ry="12.5" style="stroke:#181818;stroke-width:0.5;" width="276.1299" x="223.02" y="355.89"/><text fill="#000000" font-family="sans-serif" font-size="14" lengthAdjust="spacing" textLength="266.1299" x="228.02" y="380.7367">cumin/status/awaiting-owner-decision</text><ellipse cx="361.09" cy="16" fill="#222222" rx="10" ry="10" style="stroke:#222222;stroke-width:1;"/><ellipse cx="667.09" cy="766.78" fill="none" rx="11" ry="11" style="stroke:#222222;stroke-width:1;"/><ellipse cx="667.09" cy="766.78" fill="#222222" rx="6" ry="6" style="stroke:#222222;stroke-width:1;"/><!--link *start* to Submitted--><g class="link" data-entity-1=".start." data-entity-2="Submitted" data-source-line="15" data-uid="lnk3" id="link_.start._Submitted"><path d="M361.09,26.12 C361.09,45.4 361.09,84.74 361.09,111.5" fill="none" id="*start*-to-Submitted" style="stroke:#181818;stroke-width:1;"/><polygon fill="#181818" points="361.09,117.5,365.09,108.5,361.09,112.5,357.09,108.5,361.09,117.5" style="stroke:#181818;stroke-width:1;"/><text fill="#000000" font-family="sans-serif" font-size="13" lengthAdjust="spacing" textLength="133.4469" x="402.6769" y="69.0669">Owner&#12364;&#35201;&#27714;&#12434;&#26360;&#12365;&#12289;</text><text fill="#000000" font-family="sans-serif" font-size="13" lengthAdjust="spacing" textLength="214.6207" x="362.09" y="84.1997">cumin/type/requirement &#12434;&#20184;&#12369;&#12427;</text></g><!--link Submitted to Planning--><g class="link" data-entity-1="Submitted" data-entity-2="Planning" data-source-line="16" data-uid="lnk4" id="link_Submitted_Planning"><path d="M361.09,161.09 C361.09,182.65 361.09,210.09 361.09,231.14" fill="none" id="Submitted-to-Planning" style="stroke:#181818;stroke-width:1;"/><polygon fill="#181818" points="361.09,237.14,365.09,228.14,361.09,232.14,357.09,228.14,361.09,237.14" style="stroke:#181818;stroke-width:1;"/><text fill="#000000" font-family="sans-serif" font-size="13" lengthAdjust="spacing" textLength="165.3375" x="362.09" y="203.6569">R1 cumin&#12364;&#20998;&#21106;&#12434;&#20381;&#38972;&#12377;&#12427;</text></g><!--link Planning to PlanReview--><g class="link" data-entity-1="Planning" data-entity-2="PlanReview" data-source-line="17" data-uid="lnk5" id="link_Planning_PlanReview"><path d="M412.31,278.06 C467.77,299.14 550.2913,330.4987 607.0013,352.0487" fill="none" id="Planning-to-PlanReview" style="stroke:#181818;stroke-width:1;"/><polygon fill="#181818" points="612.61,354.18,605.6178,347.2439,607.9361,352.4039,602.7761,354.7221,612.61,354.18" style="stroke:#181818;stroke-width:1;"/><text fill="#000000" font-family="sans-serif" font-size="13" lengthAdjust="spacing" textLength="112.4361" x="533.41" y="320.6569">R2 &#20998;&#21106;&#12364;&#32066;&#12431;&#12387;&#12383;</text></g><!--link Planning to Decision--><g class="link" data-entity-1="Planning" data-entity-2="Decision" data-source-line="18" data-uid="lnk6" id="link_Planning_Decision"><path d="M361.09,278.06 C361.09,299.65 361.09,328.28 361.09,349.75" fill="none" id="Planning-to-Decision" style="stroke:#181818;stroke-width:1;"/><polygon fill="#181818" points="361.09,355.75,365.09,346.75,361.09,350.75,357.09,346.75,361.09,355.75" style="stroke:#181818;stroke-width:1;"/><text fill="#000000" font-family="sans-serif" font-size="13" lengthAdjust="spacing" textLength="112.4361" x="362.09" y="320.6569">R2 &#20998;&#21106;&#12395;&#22833;&#25943;&#12375;&#12383;</text></g><!--link Decision to Ready--><g class="link" data-entity-1="Decision" data-entity-2="Ready" data-source-line="19" data-uid="lnk7" id="link_Decision_Ready"><path d="M323.46,396.26 C275.25,421.09 197.4946,461.1237 149.2046,485.9837" fill="none" id="Decision-to-Ready" style="stroke:#181818;stroke-width:1;"/><polygon fill="#181818" points="143.87,488.73,153.7028,488.167,148.3155,486.4414,150.041,481.0542,143.87,488.73" style="stroke:#181818;stroke-width:1;"/><text fill="#000000" font-family="sans-serif" font-size="13" lengthAdjust="spacing" textLength="133.4469" x="281.7034" y="440.2569">Owner&#12364;&#35201;&#27714;&#12434;&#30452;&#12375;&#12289;</text><text fill="#000000" font-family="sans-serif" font-size="13" lengthAdjust="spacing" textLength="181.9937" x="257.43" y="455.3897">cumin/status/ready &#12434;&#20184;&#12369;&#12427;</text></g><!--link Ready to Planning--><g class="link" data-entity-1="Ready" data-entity-2="Planning" data-source-line="20" data-uid="lnk8" id="link_Ready_Planning"><path d="M85.36,488.78 C55.17,458.13 6,397.6 38.09,354.59 C66.86,316.03 186.1261,288.4494 271.9161,272.9094" fill="none" id="Ready-to-Planning" style="stroke:#181818;stroke-width:1;"/><polygon fill="#181818" points="277.82,271.84,268.2512,269.5082,272.9001,272.7312,269.6771,277.3801,277.82,271.84" style="stroke:#181818;stroke-width:1;"/><text fill="#000000" font-family="sans-serif" font-size="13" lengthAdjust="spacing" textLength="165.3375" x="39.09" y="380.4569">R1 cumin&#12364;&#20998;&#21106;&#12434;&#20381;&#38972;&#12377;&#12427;</text></g><!--link PlanReview to Implementing--><g class="link" data-entity-1="PlanReview" data-entity-2="Implementing" data-source-line="21" data-uid="lnk9" id="link_PlanReview_Implementing"><path d="M667.09,397.4 C667.09,422.5 667.09,458.66 667.09,483.09" fill="none" id="PlanReview-to-Implementing" style="stroke:#181818;stroke-width:1;"/><polygon fill="#181818" points="667.09,489.09,671.09,480.09,667.09,484.09,663.09,480.09,667.09,489.09" style="stroke:#181818;stroke-width:1;"/><text fill="#000000" font-family="sans-serif" font-size="13" lengthAdjust="spacing" textLength="151.2329" x="683.4704" y="440.2569">R3 Owner&#12364;sub-issue&#12395;</text><text fill="#000000" font-family="sans-serif" font-size="13" lengthAdjust="spacing" textLength="181.9937" x="668.09" y="455.3897">cumin/status/ready &#12434;&#20184;&#12369;&#12383;</text></g><!--link Implementing to Acceptance--><g class="link" data-entity-1="Implementing" data-entity-2="Acceptance" data-source-line="22" data-uid="lnk10" id="link_Implementing_Acceptance"><path d="M597.46,529.66 C583.85,536.73 571.27,546.29 563.09,559.19 C555.47,571.2 555.53,579.14 563.09,591.19 C571.08,603.93 578.0436,610.6636 591.3436,617.8636" fill="none" id="Implementing-to-Acceptance" style="stroke:#181818;stroke-width:1;"/><polygon fill="#181818" points="596.62,620.72,590.6096,612.9177,592.223,618.3396,586.8011,619.953,596.62,620.72" style="stroke:#181818;stroke-width:1;"/><text fill="#000000" font-family="sans-serif" font-size="13" lengthAdjust="spacing" textLength="160.7862" x="564.09" y="579.7569">R4 sub-issue&#12364;&#20840;&#12390;&#38281;&#12376;&#12383;</text></g><!--link Acceptance to Implementing--><g class="link" data-entity-1="Acceptance" data-entity-2="Implementing" data-source-line="23" data-uid="lnk11" id="link_Acceptance_Implementing"><path d="M703.09,620.93 C713.43,613.06 723.43,603.07 729.09,591.19 C735.21,578.35 735.29,571.99 729.09,559.19 C723.29,547.21 717.8237,540.811 707.2637,533.091" fill="none" id="Acceptance-to-Implementing" style="stroke:#181818;stroke-width:1;"/><polygon fill="#181818" points="702.42,529.55,707.3248,538.0906,706.4564,532.5008,712.0462,531.6324,702.42,529.55" style="stroke:#181818;stroke-width:1;"/><text fill="#000000" font-family="sans-serif" font-size="13" lengthAdjust="spacing" textLength="141.8829" x="823.0122" y="572.2569">R3 Owner&#12364;&#24046;&#12375;&#25147;&#12375;&#12383;</text><text fill="#000000" font-family="sans-serif" font-size="13" lengthAdjust="spacing" textLength="318.4874" x="734.71" y="587.3897">(sub-issue&#12434;&#36861;&#21152;&#12375;&#12289;cumin/status/ready &#12434;&#20184;&#12369;&#12427;)</text></g><!--link Acceptance to *end*--><g class="link" data-entity-1="Acceptance" data-entity-2=".end." data-source-line="24" data-uid="lnk13" id="link_Acceptance_.end."><path d="M667.09,664.23 C667.09,690.67 667.09,729.36 667.09,749.45" fill="none" id="Acceptance-to-*end*" style="stroke:#181818;stroke-width:1;"/><polygon fill="#181818" points="667.09,755.45,671.09,746.45,667.09,750.45,663.09,746.45,667.09,755.45" style="stroke:#181818;stroke-width:1;"/><text fill="#000000" font-family="sans-serif" font-size="13" lengthAdjust="spacing" textLength="188.5001" x="668.09" y="706.8469">R5 Owner&#12364;&#35201;&#27714;Issue&#12434;&#38281;&#12376;&#12427;</text><text fill="#000000" font-family="sans-serif" font-size="13" lengthAdjust="spacing" textLength="77.1685" x="723.7558" y="721.9797">(= &#21463;&#12369;&#20837;&#12428;)</text></g><!--SRC=[dLHTJnD157tVNp7X1Mgo451VI3GnCK6UD2NnHNnOkXEOo2vrFsXuOxP12vGKIR0GGC0FAcrIWX5fGE77N7PR_eLtThRTbZIYlktid7FkkMVkJ2z9kGOpIMR6UcMJsI6YaiO13uwzKTjsAV1gVUb7iB1ypK_hfNEbbyWbyACHvZnn9n00sKF8RaAs0hpKsFyAV1FcFOaNzFMoNpWbVSb1u6NWXmc2NCA4k6excaFjVaF7VzMGMl6FBlpBRQ7XBQCC5XnxFeAxmLOD-8h_zWnuSPX0jWpP7V1gaCs9RoopzVsgXhPAn4vPBEtO0nOrTMgfEjCcBSsm- -qf0jwQNzrjxETZVMMAwPHG8-tC4PrABfin5INqHdg2mYeM3Mevu9VZPb_KVTmnrYucUeXcap5tmc2EG_KcDSnrG2nSuKRJvq9SKdnrnQIdDTDavcG8UnOjkYArZCOSt5HdCYRsQD5PHZDepy-zyHU_rKzMWm_R8fIFPutoIgAbbmnnNHMPaPwc1ZMTPltHjX__vg5G1FxEN_W2Nlw6XqUf54qxcfcYVwEeqnIpyIn2wkDeeIWlxhmaglempfiCawU203ml9nUFMOuBpFDnKvPmvj8K3-6rowomAp4BL-SRw1G7GOcrX78pUXHE3ihhWTeoMq6xsBdU-ob7I6bXcqIPiQ0EaOZ2y_KJD5K0_WduRYUbsLSdeU9_FWxMCSUY8BGmWX2EJxUMyGO8VDno- -HrjYir_gVLg3j1RHyGGR_RicIx4ogJhqVb5ZFONOUE48wdHCZU8sroUNy17uc3w_UBm3S4kGtxPq_-QHNJ2NBdCbESqrZMMsjS_lANzcHyjuINk5bJp2EMkd_ZH4OZwSYhjumb7v3sov5GVWC0]--></g></svg>