<svg xmlns="http://www.w3.org/2000/svg" xmlns:xlink="http://www.w3.org/1999/xlink" contentStyleType="text/css" data-diagram-type="ACTIVITY" height="1077px" preserveAspectRatio="none" style="width:422px;height:1077px;background:#FFFFFF;" version="1.1" viewBox="0 0 422 1077" width="422px" zoomAndPan="magnify"><defs/><g><ellipse cx="186.297" cy="20" fill="#222222" rx="10" ry="10" style="stroke:#222222;stroke-width:1;"/><rect fill="none" height="96.2344" style="stroke:#000000;stroke-width:1.5;" width="205.9382" x="83.3279" y="40"/><path d="M262.7012,40 L262.7012,49.2969 L252.7012,59.2969 L83.3279,59.2969" fill="none" style="stroke:#000000;stroke-width:1.5;"/><text fill="#000000" font-family="sans-serif" font-size="14" lengthAdjust="spacing" textLength="169.3734" x="86.3279" y="53.9951">&#23450;&#26399;&#30906;&#35469; (&#12522;&#12509;&#12472;&#12488;&#12522;&#12372;&#12392;)</text><rect fill="#F1F1F1" height="47.9375" rx="12.5" ry="12.5" style="stroke:#181818;stroke-width:0.5;" width="185.9382" x="93.3279" y="76.2969"/><text fill="#000000" font-family="sans-serif" font-size="12" lengthAdjust="spacing" textLength="132.001" x="103.3279" y="97.4355">&#12473;&#12490;&#12483;&#12503;&#12471;&#12519;&#12483;&#12488;&#12434;&#35501;&#12416;</text><text fill="#000000" font-family="sans-serif" font-size="12" lengthAdjust="spacing" textLength="165.9382" x="103.3279" y="111.4043">(1&#22238;&#12398;GraphQL&#12398;&#21839;&#12356;&#21512;&#12431;&#12379;)</text><rect fill="none" height="590.6675" style="stroke:#000000;stroke-width:1.5;" width="326.594" x="23" y="146.2344"/><path d="M194.2387,146.2344 L194.2387,155.5313 L184.2387,165.5313 L23,165.5313" fill="none" style="stroke:#000000;stroke-width:1.5;"/><text fill="#000000" font-family="sans-serif" font-size="14" lengthAdjust="spacing" textLength="161.2387" x="26" y="160.2295">&#21028;&#23450; (&#32020;&#31883;&#38306;&#25968;&#12290;I/O&#12394;&#12375;)</text><rect fill="#F1F1F1" height="75.875" rx="12.5" ry="12.5" style="stroke:#181818;stroke-width:0.5;" width="306.594" x="33" y="182.5313"/><text fill="#000000" font-family="sans-serif" font-size="12" lengthAdjust="spacing" textLength="127.032" x="43" y="203.6699">&#36914;&#34892;&#20013;&#12398;Issue&#12434;&#25968;&#12360;&#12427;</text><text fill="#000000" font-family="sans-serif" font-size="12" lengthAdjust="spacing" textLength="212.8538" x="43" y="217.6387">- cumin/status/planning &#12398;&#35201;&#27714;Issue</text><text fill="#000000" font-family="sans-serif" font-size="12" lengthAdjust="spacing" textLength="286.594" x="43" y="231.6074">- implementing&#12289;awaiting-checks&#12289;reviewing &#12398;</text><text fill="#000000" font-family="sans-serif" font-size="12" lengthAdjust="spacing" textLength="116.6313" x="50.6289" y="245.5762">&#38283;&#12356;&#12390;&#12356;&#12427;sub-issue</text><rect fill="#F1F1F1" height="33.9688" rx="12.5" ry="12.5" style="stroke:#181818;stroke-width:0.5;" width="254.1352" x="59.2294" y="278.4063"/><text fill="#000000" font-family="sans-serif" font-size="12" lengthAdjust="spacing" textLength="234.1352" x="69.2294" y="299.5449">&#31354;&#12365; = max_issues_in_progress - &#36914;&#34892;&#20013;</text><rect fill="#F1F1F1" height="75.875" rx="12.5" ry="12.5" style="stroke:#181818;stroke-width:0.5;" width="236.3641" x="68.115" y="332.375"/><text fill="#000000" font-family="sans-serif" font-size="12" lengthAdjust="spacing" textLength="95.1745" x="78.115" y="353.5137">I1&#12398;&#20505;&#35036;&#12434;&#38598;&#12417;&#12427;</text><text fill="#000000" font-family="sans-serif" font-size="12" lengthAdjust="spacing" textLength="124.7758" x="78.115" y="367.4824">- &#38283;&#12356;&#12390;&#12356;&#12427;sub-issue</text><text fill="#000000" font-family="sans-serif" font-size="12" lengthAdjust="spacing" textLength="200.1392" x="78.115" y="381.4512">- cumin/status/ready &#12364;&#20184;&#12356;&#12390;&#12356;&#12427;</text><text fill="#000000" font-family="sans-serif" font-size="12" lengthAdjust="spacing" textLength="216.3641" x="78.115" y="395.4199">- blocked by &#12398;Issue&#12364;&#20840;&#12390;&#38281;&#12376;&#12390;&#12356;&#12427;</text><rect fill="#F1F1F1" height="33.9688" rx="12.5" ry="12.5" style="stroke:#181818;stroke-width:0.5;" width="207.0324" x="82.7808" y="428.25"/><text fill="#000000" font-family="sans-serif" font-size="12" lengthAdjust="spacing" textLength="187.0324" x="92.7808" y="449.3887">&#20505;&#35036;&#12434;Issue&#12398;&#30058;&#21495;&#12398;&#26119;&#38918;&#12395;&#20006;&#12409;&#12427;</text><rect fill="#F1F1F1" height="33.9688" rx="12.5" ry="12.5" style="stroke:#181818;stroke-width:0.5;" width="152.001" x="110.2965" y="537.9292"/><text fill="#000000" font-family="sans-serif" font-size="12" lengthAdjust="spacing" textLength="132.001" x="120.2965" y="559.0679">&#21205;&#20316;&#12300;&#30528;&#25163;&#12301;&#12434;&#21015;&#12395;&#36275;&#12377;</text><rect fill="#F1F1F1" height="33.9688" rx="12.5" ry="12.5" style="stroke:#181818;stroke-width:0.5;" width="99.6353" x="136.4794" y="600.9956"/><text fill="#000000" font-family="sans-serif" font-size="12" lengthAdjust="spacing" textLength="79.6353" x="146.4794" y="622.1343">&#31354;&#12365;&#12434;1&#28187;&#12425;&#12377;</text><polygon fill="#F1F1F1" points="106.3784,482.2188,266.2157,482.2188,278.2157,494.2188,266.2157,506.2188,106.3784,506.2188,94.3784,494.2188,106.3784,482.2188" style="stroke:#181818;stroke-width:0.5;"/><text fill="#000000" font-family="sans-serif" font-size="11" lengthAdjust="spacing" textLength="21.9998" x="190.297" y="516.4292">&#12399;&#12356;</text><text fill="#000000" font-family="sans-serif" font-size="11" lengthAdjust="spacing" textLength="159.8373" x="106.3784" y="498.0269">&#20505;&#35036;&#12364;&#27531;&#12387;&#12390;&#12356;&#12390;&#12289;&#31354;&#12365;&#12364;&#12354;&#12427;?</text><text fill="#000000" font-family="sans-serif" font-size="11" lengthAdjust="spacing" textLength="32.9998" x="61.3786" y="491.6245">&#12356;&#12356;&#12360;</text><rect fill="#F1F1F1" height="47.9375" rx="12.5" ry="12.5" style="stroke:#181818;stroke-width:0.5;" width="269.3651" x="51.6145" y="676.9644"/><text fill="#000000" font-family="sans-serif" font-size="12" lengthAdjust="spacing" textLength="84.0006" x="61.6145" y="698.103">&#21205;&#20316;&#12398;&#21015;&#12434;&#36820;&#12377;</text><text fill="#000000" font-family="sans-serif" font-size="12" lengthAdjust="spacing" textLength="249.3651" x="61.6145" y="712.0718">(&#21516;&#12376;&#12473;&#12490;&#12483;&#12503;&#12471;&#12519;&#12483;&#12488;&#12363;&#12425;&#12399;&#12289;&#12356;&#12388;&#12418;&#21516;&#12376;&#21015;)</text><rect fill="none" height="277.9448" style="stroke:#000000;stroke-width:1.5;" width="400.2983" x="11" y="746.9019"/><path d="M48.9999,746.9019 L48.9999,756.1987 L38.9999,766.1987 L11,766.1987" fill="none" style="stroke:#000000;stroke-width:1.5;"/><text fill="#000000" font-family="sans-serif" font-size="14" lengthAdjust="spacing" textLength="27.9999" x="14" y="760.897">&#36969;&#29992;</text><rect fill="#F1F1F1" height="33.9688" rx="12.5" ry="12.5" style="stroke:#181818;stroke-width:0.5;" width="288.7175" x="41.9382" y="838.9092"/><text fill="#000000" font-family="sans-serif" font-size="12" lengthAdjust="spacing" textLength="268.7175" x="51.9382" y="860.0479">&#12521;&#12505;&#12523;&#12434; cumin/status/implementing &#12395;&#26367;&#12360;&#12427;</text><polygon fill="#F1F1F1" points="155.878,892.8779,216.716,892.8779,228.716,904.8779,216.716,916.8779,155.878,916.8779,143.878,904.8779,155.878,892.8779" style="stroke:#181818;stroke-width:0.5;"/><text fill="#000000" font-family="sans-serif" font-size="11" lengthAdjust="spacing" textLength="60.838" x="155.878" y="908.686">&#26367;&#12360;&#12425;&#12428;&#12383;?</text><text fill="#000000" font-family="sans-serif" font-size="11" lengthAdjust="spacing" textLength="21.9998" x="121.8782" y="902.2837">&#12399;&#12356;</text><text fill="#000000" font-family="sans-serif" font-size="11" lengthAdjust="spacing" textLength="32.9998" x="228.716" y="902.2837">&#12356;&#12356;&#12360;</text><rect fill="#F1F1F1" height="33.9688" rx="12.5" ry="12.5" style="stroke:#181818;stroke-width:0.5;" width="68.0004" x="69.2963" y="926.8779"/><text fill="#000000" font-family="sans-serif" font-size="12" lengthAdjust="spacing" textLength="48.0004" x="79.2963" y="948.0166">&#20381;&#38972;&#12377;&#12427;</text><rect fill="#F1F1F1" height="33.9688" rx="12.5" ry="12.5" style="stroke:#181818;stroke-width:0.5;" width="224.0016" x="157.2967" y="926.8779"/><text fill="#000000" font-family="sans-serif" font-size="12" lengthAdjust="spacing" textLength="204.0016" x="167.2967" y="948.0166">&#12525;&#12464;&#12395;&#27531;&#12377;&#12290;&#27425;&#12398;&#23450;&#26399;&#30906;&#35469;&#12391;&#12420;&#12426;&#30452;&#12377;</text><polygon fill="#F1F1F1" points="186.297,966.8467,198.297,978.8467,186.297,990.8467,174.297,978.8467,186.297,966.8467" style="stroke:#181818;stroke-width:0.5;"/><polygon fill="#F1F1F1" points="139.3781,783.1987,233.2159,783.1987,245.2159,795.1987,233.2159,807.1987,139.3781,807.1987,127.3781,795.1987,139.3781,783.1987" style="stroke:#181818;stroke-width:0.5;"/><text fill="#000000" font-family="sans-serif" font-size="11" lengthAdjust="spacing" textLength="21.9998" x="190.297" y="817.4092">&#12399;&#12356;</text><text fill="#000000" font-family="sans-serif" font-size="11" lengthAdjust="spacing" textLength="93.8378" x="139.3781" y="799.0068">&#21205;&#20316;&#12364;&#27531;&#12387;&#12390;&#12356;&#12427;?</text><text fill="#000000" font-family="sans-serif" font-size="11" lengthAdjust="spacing" textLength="32.9998" x="94.3784" y="792.6045">&#12356;&#12356;&#12360;</text><ellipse cx="186.297" cy="1055.8467" fill="none" rx="11" ry="11" style="stroke:#222222;stroke-width:1;"/><ellipse cx="186.297" cy="1055.8467" fill="#222222" rx="6" ry="6" style="stroke:#222222;stroke-width:1;"/><line style="stroke:#181818;stroke-width:1;" x1="186.297" x2="186.297" y1="30" y2="76.2969"/><polygon fill="#181818" points="182.297,66.2969,186.297,76.2969,190.297,66.2969,186.297,70.2969" style="stroke:#181818;stroke-width:1;"/><line style="stroke:#181818;stroke-width:1;" x1="186.297" x2="186.297" y1="258.4063" y2="278.4063"/><polygon fill="#181818" points="182.297,268.4063,186.297,278.4063,190.297,268.4063,186.297,272.4063" style="stroke:#181818;stroke-width:1;"/><line style="stroke:#181818;stroke-width:1;" x1="186.297" x2="186.297" y1="312.375" y2="332.375"/><polygon fill="#181818" points="182.297,322.375,186.297,332.375,190.297,322.375,186.297,326.375" style="stroke:#181818;stroke-width:1;"/><line style="stroke:#181818;stroke-width:1;" x1="186.297" x2="186.297" y1="408.25" y2="428.25"/><polygon fill="#181818" points="182.297,418.25,186.297,428.25,190.297,418.25,186.297,422.25" style="stroke:#181818;stroke-width:1;"/><line style="stroke:#181818;stroke-width:1;" x1="186.297" x2="186.297" y1="571.8979" y2="600.9956"/><polygon fill="#181818" points="182.297,590.9956,186.297,600.9956,190.297,590.9956,186.297,594.9956" style="stroke:#181818;stroke-width:1;"/><line style="stroke:#181818;stroke-width:1;" x1="186.297" x2="186.297" y1="506.2188" y2="537.9292"/><polygon fill="#181818" points="182.297,527.9292,186.297,537.9292,190.297,527.9292,186.297,531.9292" style="stroke:#181818;stroke-width:1;"/><line style="stroke:#181818;stroke-width:1;" x1="186.297" x2="186.297" y1="634.9644" y2="644.9644"/><line style="stroke:#181818;stroke-width:1;" x1="186.297" x2="290.2157" y1="644.9644" y2="644.9644"/><polygon fill="#181818" points="286.2157,580.9956,290.2157,570.9956,294.2157,580.9956,290.2157,576.9956" style="stroke:#181818;stroke-width:1;"/><line style="stroke:#181818;stroke-width:1;" x1="290.2157" x2="290.2157" y1="494.2188" y2="644.9644"/><line style="stroke:#181818;stroke-width:1;" x1="290.2157" x2="278.2157" y1="494.2188" y2="494.2188"/><polygon fill="#181818" points="288.2157,490.2188,278.2157,494.2188,288.2157,498.2188,284.2157,494.2188" style="stroke:#181818;stroke-width:1;"/><line style="stroke:#181818;stroke-width:1;" x1="94.3784" x2="82.3784" y1="494.2188" y2="494.2188"/><polygon fill="#181818" points="78.3784,566.9956,82.3784,576.9956,86.3784,566.9956,82.3784,570.9956" style="stroke:#181818;stroke-width:1;"/><line style="stroke:#181818;stroke-width:1;" x1="82.3784" x2="82.3784" y1="494.2188" y2="656.9644"/><line style="stroke:#181818;stroke-width:1;" x1="82.3784" x2="186.297" y1="656.9644" y2="656.9644"/><line style="stroke:#181818;stroke-width:1;" x1="186.297" x2="186.297" y1="656.9644" y2="676.9644"/><polygon fill="#181818" points="182.297,666.9644,186.297,676.9644,190.297,666.9644,186.297,670.9644" style="stroke:#181818;stroke-width:1;"/><line style="stroke:#181818;stroke-width:1;" x1="186.297" x2="186.297" y1="462.2188" y2="482.2188"/><polygon fill="#181818" points="182.297,472.2188,186.297,482.2188,190.297,472.2188,186.297,476.2188" style="stroke:#181818;stroke-width:1;"/><line style="stroke:#181818;stroke-width:1;" x1="186.297" x2="186.297" y1="124.2344" y2="182.5313"/><polygon fill="#181818" points="182.297,172.5313,186.297,182.5313,190.297,172.5313,186.297,176.5313" style="stroke:#181818;stroke-width:1;"/><line style="stroke:#181818;stroke-width:1;" x1="143.878" x2="103.2965" y1="904.8779" y2="904.8779"/><line style="stroke:#181818;stroke-width:1;" x1="103.2965" x2="103.2965" y1="904.8779" y2="926.8779"/><polygon fill="#181818" points="99.2965,916.8779,103.2965,926.8779,107.2965,916.8779,103.2965,920.8779" style="stroke:#181818;stroke-width:1;"/><line style="stroke:#181818;stroke-width:1;" x1="228.716" x2="269.2975" y1="904.8779" y2="904.8779"/><line style="stroke:#181818;stroke-width:1;" x1="269.2975" x2="269.2975" y1="904.8779" y2="926.8779"/><polygon fill="#181818" points="265.2975,916.8779,269.2975,926.8779,273.2975,916.8779,269.2975,920.8779" style="stroke:#181818;stroke-width:1;"/><line style="stroke:#181818;stroke-width:1;" x1="103.2965" x2="103.2965" y1="960.8467" y2="978.8467"/><line style="stroke:#181818;stroke-width:1;" x1="103.2965" x2="174.297" y1="978.8467" y2="978.8467"/><polygon fill="#181818" points="164.297,974.8467,174.297,978.8467,164.297,982.8467,168.297,978.8467" style="stroke:#181818;stroke-width:1;"/><line style="stroke:#181818;stroke-width:1;" x1="269.2975" x2="269.2975" y1="960.8467" y2="978.8467"/><line style="stroke:#181818;stroke-width:1;" x1="269.2975" x2="198.297" y1="978.8467" y2="978.8467"/><polygon fill="#181818" points="208.297,974.8467,198.297,978.8467,208.297,982.8467,204.297,978.8467" style="stroke:#181818;stroke-width:1;"/><line style="stroke:#181818;stroke-width:1;" x1="186.297" x2="186.297" y1="872.8779" y2="892.8779"/><polygon fill="#181818" points="182.297,882.8779,186.297,892.8779,190.297,882.8779,186.297,886.8779" style="stroke:#181818;stroke-width:1;"/><line style="stroke:#181818;stroke-width:1;" x1="186.297" x2="186.297" y1="807.1987" y2="838.9092"/><polygon fill="#181818" points="182.297,828.9092,186.297,838.9092,190.297,828.9092,186.297,832.9092" style="stroke:#181818;stroke-width:1;"/><line style="stroke:#181818;stroke-width:1;" x1="186.297" x2="186.297" y1="990.8467" y2="1000.8467"/><line style="stroke:#181818;stroke-width:1;" x1="186.297" x2="395.2983" y1="1000.8467" y2="1000.8467"/><polygon fill="#181818" points="391.2983,898.9756,395.2983,888.9756,399.2983,898.9756,395.2983,894.9756" style="stroke:#181818;stroke-width:1;"/><line style="stroke:#181818;stroke-width:1;" x1="395.2983" x2="395.2983" y1="795.1987" y2="1000.8467"/><line style="stroke:#181818;stroke-width:1;" x1="395.2983" x2="245.2159" y1="795.1987" y2="795.1987"/><polygon fill="#181818" points="255.2159,791.1987,245.2159,795.1987,255.2159,799.1987,251.2159,795.1987" style="stroke:#181818;stroke-width:1;"/><line style="stroke:#181818;stroke-width:1;" x1="127.3781" x2="29.9382" y1="795.1987" y2="795.1987"/><polygon fill="#181818" points="25.9382,884.9756,29.9382,894.9756,33.9382,884.9756,29.9382,888.9756" style="stroke:#181818;stroke-width:1;"/><line style="stroke:#181818;stroke-width:1;" x1="29.9382" x2="29.9382" y1="795.1987" y2="1012.8467"/><line style="stroke:#181818;stroke-width:1;" x1="29.9382" x2="186.297" y1="1012.8467" y2="1012.8467"/><line style="stroke:#181818;stroke-width:1;" x1="186.297" x2="186.297" y1="1012.8467" y2="1044.8467"/><polygon fill="#181818" points="182.297,1034.8467,186.297,1044.8467,190.297,1034.8467,186.297,1038.8467" style="stroke:#181818;stroke-width:1;"/><line style="stroke:#181818;stroke-width:1;" x1="186.297" x2="186.297" y1="724.9019" y2="783.1987"/><polygon fill="#181818" points="182.297,773.1987,186.297,783.1987,190.297,773.1987,186.297,777.1987" style="stroke:#181818;stroke-width:1;"/><!--SRC=[VLHRJnfH47xdLvpu8ZmWuLNJzAt6f6dJDEchMU4W6s4XUvRIfZ7Piskz0T4OKIbQhr61YfUQYhRL7pFi0l-YStONAbgRaENad6zclfdvPWP999EK5P9DgLEC18bL_s9lRhVsRjhL0l2wDN-0Dw0RO5o3kGYc2UOw65TW7ZddUU0vC1QiNB7vUzF1u-kAVNu31WSZXuQ-GTBUpUDJgrYrbgw8VonCW5U1LmBuVqfanZ8qo3H9esme6SMxUdlt67ZDEhsrxj1dgUVdxRjHVBNB3U05Q-u6-Fem0RCAvXOO3S45pnYdVDbiv80V4HPHvRJ6GYfLebGDHcLfKfMIR8Z52PAqwjiEiQv_DYKhQGa1XCMbQ2ehAvCa9YKOlVSIfJ4faz1Uf1JjbPIaX4aA2pAgoZ6V3rDGDH_YD5cJKmePk5zAudz4T1NuSM20VF8HClnaTOsLTlK431r1_h1L_ehvZQfIElxcfIXsSGduZBMCC3oK0oE-wRxuJk-8ltMvshh8TTRsxE8P9ZeMUktKVxqRlADVO26QZHDqEIQw8Jg8K8v-SmW8kX89YHvbM2YTa1H554Tqwf3RvuPZv03bP3f1arJHy1rqBcKbMHo3aJYDJ36yKUbxcMOzQpGXfBE6lPe1VYY-Hevb9eAE94O4jLO5krmWpqXI-Z3kNBDnMHbFgwb9bJAXrnvv1pyM5cNHI-tzJKoYKvvrPUXmUohGumnLAaK_8i5yy-V6VHC7EP58HQPeb4m8X5SldhS-esGFEsiBm3TwU8TIZuq7zUP027bZhhCpYqflDj3WsZF8nkK49NxFZEVjEjBUztpYL-TkKV09E8vbxda0PmZrnKyH4N1gEkpDevvlRUds0igx80IFiybhxH_VKVCZBivpPQo4xKOPvzXxmNdnQ3X1yJSVyFrrsntpzXrgk2IaQItdHUB_tH62eCuTRmTW6Au9Edeesmwlj5QFNMrsY-75xI_6lrC7im9c2SmQ4knlwtrnOkzgTldErRXR33b6_Dsh1J2GtJRwr-9KwO-0CPgtMvsTN-xgS8qfxea7rVBOuFIUYM22UGd7p_wsAmhOjsQFmC1q5d5pzLg3BS2byaGhfd7PfD9_0000]--></g></svg>