<svg xmlns="http://www.w3.org/2000/svg" xmlns:xlink="http://www.w3.org/1999/xlink" contentStyleType="text/css" data-diagram-type="ACTIVITY" height="1292px" preserveAspectRatio="none" style="width:1552px;height:1292px;background:#FFFFFF;" version="1.1" viewBox="0 0 1552 1292" width="1552px" zoomAndPan="magnify"><defs/><g><ellipse cx="776.1116" cy="20" fill="#222222" rx="10" ry="10" style="stroke:#222222;stroke-width:1;"/><rect fill="#F1F1F1" height="33.9688" rx="12.5" ry="12.5" style="stroke:#181818;stroke-width:0.5;" width="180.0254" x="686.0989" y="50"/><text fill="#000000" font-family="sans-serif" font-size="12" lengthAdjust="spacing" textLength="160.0254" x="696.0989" y="71.1387">The Implementer run ends</text><polygon fill="#F1F1F1" points="428.2178,103.9688,468.5386,103.9688,480.5386,115.9688,468.5386,127.9688,428.2178,127.9688,416.2178,115.9688,428.2178,103.9688" style="stroke:#181818;stroke-width:0.5;"/><text fill="#000000" font-family="sans-serif" font-size="11" lengthAdjust="spacing" textLength="27.4517" x="452.3782" y="138.1792">done</text><text fill="#000000" font-family="sans-serif" font-size="11" lengthAdjust="spacing" textLength="40.3208" x="428.2178" y="119.7769">Result?</text><rect fill="#F1F1F1" height="47.9375" rx="12.5" ry="12.5" style="stroke:#181818;stroke-width:0.5;" width="193.8945" x="351.4309" y="160.7734"/><text fill="#000000" font-family="sans-serif" font-size="12" lengthAdjust="spacing" textLength="149.8242" x="361.4309" y="181.9121">Read the snapshot again</text><text fill="#000000" font-family="sans-serif" font-size="12" lengthAdjust="spacing" textLength="173.8945" x="361.4309" y="195.8809">(the facts right after the run)</text><rect fill="#F1F1F1" height="47.9375" rx="12.5" ry="12.5" style="stroke:#181818;stroke-width:0.5;" width="264.3125" x="316.2219" y="228.7109"/><text fill="#000000" font-family="sans-serif" font-size="12" lengthAdjust="spacing" textLength="244.3125" x="326.2219" y="249.8496">List the open pull requests of the branch</text><text fill="#000000" font-family="sans-serif" font-size="12" lengthAdjust="spacing" textLength="148.0547" x="326.2219" y="263.8184">that cumin chose (REST)</text><rect fill="#F1F1F1" height="33.9688" rx="12.5" ry="12.5" style="stroke:#181818;stroke-width:0.5;" width="253.291" x="321.7327" y="296.6484"/><text fill="#000000" font-family="sans-serif" font-size="12" lengthAdjust="spacing" textLength="233.291" x="331.7327" y="317.7871">Read the head commit of the worktree</text><rect fill="none" height="196.3477" style="stroke:#000000;stroke-width:1.5;" width="874.7563" x="11" y="340.6172"/><path d="M240.3994,340.6172 L240.3994,349.9141 L230.3994,359.9141 L11,359.9141" fill="none" style="stroke:#000000;stroke-width:1.5;"/><text fill="#000000" font-family="sans-serif" font-size="14" lengthAdjust="spacing" textLength="219.3994" x="14" y="354.6123">Decision (pure function, no I/O)</text><polygon fill="#F1F1F1" points="56.3254,379.9141,170.8855,379.9141,182.8855,392.7188,170.8855,405.5234,56.3254,405.5234,44.3254,392.7188,56.3254,379.9141" style="stroke:#181818;stroke-width:0.5;"/><text fill="#000000" font-family="sans-serif" font-size="11" lengthAdjust="spacing" textLength="13.7017" x="117.6055" y="415.7339">no</text><text fill="#000000" font-family="sans-serif" font-size="11" lengthAdjust="spacing" textLength="114.5601" x="56.3254" y="390.1245">An open pull request</text><text fill="#000000" font-family="sans-serif" font-size="11" lengthAdjust="spacing" textLength="82.8223" x="70.3118" y="402.9292">on the branch?</text><rect fill="#F1F1F1" height="33.9688" rx="12.5" ry="12.5" style="stroke:#181818;stroke-width:0.5;" width="185.2109" x="21" y="438.3281"/><text fill="#000000" font-family="sans-serif" font-size="12" lengthAdjust="spacing" textLength="165.2109" x="31" y="459.4668">failed: no open pull request</text><polygon fill="#F1F1F1" points="238.2109,379.9141,433.708,379.9141,445.708,392.7188,433.708,405.5234,238.2109,405.5234,226.2109,392.7188,238.2109,379.9141" style="stroke:#181818;stroke-width:0.5;"/><text fill="#000000" font-family="sans-serif" font-size="11" lengthAdjust="spacing" textLength="13.7017" x="339.9595" y="415.7339">no</text><text fill="#000000" font-family="sans-serif" font-size="11" lengthAdjust="spacing" textLength="118.105" x="238.2109" y="390.1245">One by the bot of the</text><text fill="#000000" font-family="sans-serif" font-size="11" lengthAdjust="spacing" textLength="181.5107" x="252.1973" y="402.9292">Implementer App (&lt;slug&gt;[bot])?</text><rect fill="#F1F1F1" height="33.9688" rx="12.5" ry="12.5" style="stroke:#181818;stroke-width:0.5;" width="151.3906" x="260.2642" y="438.3281"/><text fill="#000000" font-family="sans-serif" font-size="12" lengthAdjust="spacing" textLength="131.3906" x="270.2642" y="459.4668">failed: another author</text><polygon fill="#F1F1F1" points="477.708,379.9141,674.4243,379.9141,686.4243,392.7188,674.4243,405.5234,477.708,405.5234,465.708,392.7188,477.708,379.9141" style="stroke:#181818;stroke-width:0.5;"/><text fill="#000000" font-family="sans-serif" font-size="11" lengthAdjust="spacing" textLength="13.7017" x="580.0662" y="415.7339">no</text><text fill="#000000" font-family="sans-serif" font-size="11" lengthAdjust="spacing" textLength="178.5996" x="477.708" y="390.1245">Head commit of the pull request</text><text fill="#000000" font-family="sans-serif" font-size="11" lengthAdjust="spacing" textLength="182.73" x="491.6943" y="402.9292">equals the head of the worktree?</text><text fill="#000000" font-family="sans-serif" font-size="11" lengthAdjust="spacing" textLength="19.0083" x="686.4243" y="390.1245">yes</text><rect fill="#F1F1F1" height="33.9688" rx="12.5" ry="12.5" style="stroke:#181818;stroke-width:0.5;" width="211.5957" x="470.2683" y="438.3281"/><text fill="#000000" font-family="sans-serif" font-size="12" lengthAdjust="spacing" textLength="191.5957" x="480.2683" y="459.4668">failed: head commit not pushed</text><rect fill="#F1F1F1" height="47.9375" rx="12.5" ry="12.5" style="stroke:#181818;stroke-width:0.5;" width="169.332" x="706.4243" y="427.1367"/><text fill="#000000" font-family="sans-serif" font-size="12" lengthAdjust="spacing" textLength="121.4648" x="716.4243" y="448.2754">passed; add the link</text><text fill="#000000" font-family="sans-serif" font-size="12" lengthAdjust="spacing" textLength="149.332" x="716.4243" y="462.2441">when the issue has none</text><rect fill="#F1F1F1" height="47.9375" rx="12.5" ry="12.5" style="stroke:#181818;stroke-width:0.5;" width="239.9082" x="328.4241" y="659.8164"/><text fill="#000000" font-family="sans-serif" font-size="12" lengthAdjust="spacing" textLength="148.6172" x="338.4241" y="680.9551">cumin-core adds the link</text><text fill="#000000" font-family="sans-serif" font-size="12" lengthAdjust="spacing" textLength="219.9082" x="338.4241" y="694.9238">(GraphQL addCloseIssueReferences)</text><rect fill="#F1F1F1" height="33.9688" rx="12.5" ry="12.5" style="stroke:#181818;stroke-width:0.5;" width="169.8242" x="363.4661" y="738.2695"/><text fill="#000000" font-family="sans-serif" font-size="12" lengthAdjust="spacing" textLength="149.8242" x="373.4661" y="759.4082">Read the snapshot again</text><polygon fill="#F1F1F1" points="412.4644,611.4141,484.292,611.4141,496.292,623.4141,484.292,635.4141,412.4644,635.4141,400.4644,623.4141,412.4644,611.4141" style="stroke:#181818;stroke-width:0.5;"/><text fill="#000000" font-family="sans-serif" font-size="11" lengthAdjust="spacing" textLength="19.0083" x="452.3782" y="645.6245">yes</text><text fill="#000000" font-family="sans-serif" font-size="11" lengthAdjust="spacing" textLength="71.8276" x="412.4644" y="627.2222">Add the link?</text><polygon fill="#F1F1F1" points="448.3782,792.2383,460.3782,804.2383,448.3782,816.2383,436.3782,804.2383,448.3782,792.2383" style="stroke:#181818;stroke-width:0.5;"/><polygon fill="#F1F1F1" points="426.166,563.0117,470.5903,563.0117,482.5903,575.0117,470.5903,587.0117,426.166,587.0117,414.166,575.0117,426.166,563.0117" style="stroke:#181818;stroke-width:0.5;"/><text fill="#000000" font-family="sans-serif" font-size="11" lengthAdjust="spacing" textLength="19.0083" x="452.3782" y="597.2222">yes</text><text fill="#000000" font-family="sans-serif" font-size="11" lengthAdjust="spacing" textLength="44.4243" x="426.166" y="578.8198">Passed?</text><polygon fill="#F1F1F1" points="448.3782,836.2383,460.3782,848.2383,448.3782,860.2383,436.3782,848.2383,448.3782,836.2383" style="stroke:#181818;stroke-width:0.5;"/><polygon fill="#F1F1F1" points="367.511,880.2383,529.2454,880.2383,541.2454,892.2383,529.2454,904.2383,367.511,904.2383,355.511,892.2383,367.511,880.2383" style="stroke:#181818;stroke-width:0.5;"/><text fill="#000000" font-family="sans-serif" font-size="11" lengthAdjust="spacing" textLength="161.7344" x="367.511" y="896.0464">Passed, and the link is there?</text><text fill="#000000" font-family="sans-serif" font-size="11" lengthAdjust="spacing" textLength="19.0083" x="336.5027" y="889.644">yes</text><text fill="#000000" font-family="sans-serif" font-size="11" lengthAdjust="spacing" textLength="13.7017" x="541.2454" y="889.644">no</text><rect fill="#F1F1F1" height="33.9688" rx="12.5" ry="12.5" style="stroke:#181818;stroke-width:0.5;" width="320.5859" x="118.5847" y="914.2383"/><text fill="#000000" font-family="sans-serif" font-size="12" lengthAdjust="spacing" textLength="300.5859" x="128.5847" y="935.377">Change the label to cumin/status/awaiting-checks</text><ellipse cx="278.8777" cy="994.207" fill="none" rx="11" ry="11" style="stroke:#222222;stroke-width:1;"/><ellipse cx="278.8777" cy="994.207" fill="#222222" rx="6" ry="6" style="stroke:#222222;stroke-width:1;"/><rect fill="#F1F1F1" height="61.9063" rx="12.5" ry="12.5" style="stroke:#181818;stroke-width:0.5;" width="317.416" x="459.1707" y="914.2383"/><text fill="#000000" font-family="sans-serif" font-size="12" lengthAdjust="spacing" textLength="114.457" x="469.1707" y="935.377">Build the comment</text><text fill="#000000" font-family="sans-serif" font-size="12" lengthAdjust="spacing" textLength="297.416" x="469.1707" y="949.3457">(stop-note.md, one sentence for the failed check,</text><text fill="#000000" font-family="sans-serif" font-size="12" lengthAdjust="spacing" textLength="148.4004" x="469.1707" y="963.3145">or the answer of GitHub)</text><polygon fill="#F1F1F1" points="1025.6816,103.9688,1068.6182,103.9688,1080.6182,115.9688,1068.6182,127.9688,1025.6816,127.9688,1013.6816,115.9688,1025.6816,103.9688" style="stroke:#181818;stroke-width:0.5;"/><text fill="#000000" font-family="sans-serif" font-size="11" lengthAdjust="spacing" textLength="42.9365" x="1025.6816" y="119.7769">blocked</text><text fill="#000000" font-family="sans-serif" font-size="11" lengthAdjust="spacing" textLength="76.6777" x="1080.6182" y="113.3745">abnormal end</text><rect fill="#F1F1F1" height="47.9375" rx="12.5" ry="12.5" style="stroke:#181818;stroke-width:0.5;" width="282.7871" x="905.7563" y="147.9688"/><text fill="#000000" font-family="sans-serif" font-size="12" lengthAdjust="spacing" textLength="194.0684" x="915.7563" y="169.1074">The comment is blocked_reason</text><text fill="#000000" font-family="sans-serif" font-size="12" lengthAdjust="spacing" textLength="262.7871" x="915.7563" y="183.0762">(decision-request.md, written by the agent)</text><rect fill="#F1F1F1" height="47.9375" rx="12.5" ry="12.5" style="stroke:#181818;stroke-width:0.5;" width="332.6797" x="1208.5435" y="495.0742"/><text fill="#000000" font-family="sans-serif" font-size="12" lengthAdjust="spacing" textLength="227.9355" x="1218.5435" y="516.2129">Retry, then hand it back to the Owner</text><text fill="#000000" font-family="sans-serif" font-size="12" lengthAdjust="spacing" textLength="312.6797" x="1218.5435" y="530.1816">(the next implementation issue of this requirement)</text><ellipse cx="1374.8833" cy="580.0586" fill="none" rx="11" ry="11" style="stroke:#222222;stroke-width:1;"/><ellipse cx="1374.8833" cy="580.0586" fill="#222222" rx="6" ry="6" style="stroke:#222222;stroke-width:1;"/><rect fill="none" height="204.1719" style="stroke:#000000;stroke-width:1.5;" width="683.8896" x="581.0745" y="1035.207"/><path d="M1000.1096,1035.207 L1000.1096,1044.5039 L990.1096,1054.5039 L581.0745,1054.5039" fill="none" style="stroke:#000000;stroke-width:1.5;"/><text fill="#000000" font-family="sans-serif" font-size="14" lengthAdjust="spacing" textLength="409.0352" x="584.0745" y="1049.2021">Hand back to the Owner (the row number is an argument)</text><rect fill="#F1F1F1" height="33.9688" rx="12.5" ry="12.5" style="stroke:#181818;stroke-width:0.5;" width="254.5977" x="648.8127" y="1071.5039"/><text fill="#000000" font-family="sans-serif" font-size="12" lengthAdjust="spacing" textLength="234.5977" x="658.8127" y="1092.6426">Comment on the implementation issue</text><rect fill="#F1F1F1" height="33.9688" rx="12.5" ry="12.5" style="stroke:#181818;stroke-width:0.5;" width="370.0742" x="591.0745" y="1125.4727"/><text fill="#000000" font-family="sans-serif" font-size="12" lengthAdjust="spacing" textLength="350.0742" x="601.0745" y="1146.6113">Change the label to cumin/status/awaiting-owner-decision</text><path d="M955.0862,1183.2773 L955.0862,1199.4102 L935.0862,1203.4102 L955.0862,1207.4102 L955.0862,1223.543 A0,0 0 0 0 955.0862,1223.543 L1254.9641,1223.543 A0,0 0 0 0 1254.9641,1223.543 L1254.9641,1193.2773 L1244.9641,1183.2773 L955.0862,1183.2773 A0,0 0 0 0 955.0862,1183.2773" fill="#FEFFDD" style="stroke:#181818;stroke-width:0.5;"/><path d="M1244.9641,1183.2773 L1244.9641,1193.2773 L1254.9641,1193.2773 L1244.9641,1183.2773" fill="#FEFFDD" style="stroke:#181818;stroke-width:0.5;"/><text fill="#000000" font-family="sans-serif" font-size="13" lengthAdjust="spacing" textLength="259.7017" x="961.0862" y="1200.3442">One failure does not stop the next step.</text><text fill="#000000" font-family="sans-serif" font-size="13" lengthAdjust="spacing" textLength="278.8779" x="961.0862" y="1215.4771">Nothing is rolled back. Failures are logged.</text><rect fill="#F1F1F1" height="47.9375" rx="12.5" ry="12.5" style="stroke:#181818;stroke-width:0.5;" width="317.9492" x="617.137" y="1179.4414"/><text fill="#000000" font-family="sans-serif" font-size="12" lengthAdjust="spacing" textLength="102.1875" x="627.137" y="1200.5801">Notify the Owner</text><text fill="#000000" font-family="sans-serif" font-size="12" lengthAdjust="spacing" textLength="297.9492" x="627.137" y="1214.5488">(the link is the comment; a setting can turn it off)</text><ellipse cx="776.1116" cy="1270.3789" fill="none" rx="11" ry="11" style="stroke:#222222;stroke-width:1;"/><ellipse cx="776.1116" cy="1270.3789" fill="#222222" rx="6" ry="6" style="stroke:#222222;stroke-width:1;"/><line style="stroke:#181818;stroke-width:1;" x1="776.1116" x2="776.1116" y1="30" y2="50"/><polygon fill="#181818" points="772.1116,40,776.1116,50,780.1116,40,776.1116,44" style="stroke:#181818;stroke-width:1;"/><line style="stroke:#181818;stroke-width:1;" x1="448.3782" x2="448.3782" y1="208.7109" y2="228.7109"/><polygon fill="#181818" points="444.3782,218.7109,448.3782,228.7109,452.3782,218.7109,448.3782,222.7109" style="stroke:#181818;stroke-width:1;"/><line style="stroke:#181818;stroke-width:1;" x1="448.3782" x2="448.3782" y1="276.6484" y2="296.6484"/><polygon fill="#181818" points="444.3782,286.6484,448.3782,296.6484,452.3782,286.6484,448.3782,290.6484" style="stroke:#181818;stroke-width:1;"/><line style="stroke:#181818;stroke-width:1;" x1="113.6055" x2="113.6055" y1="405.5234" y2="438.3281"/><polygon fill="#181818" points="109.6055,428.3281,113.6055,438.3281,117.6055,428.3281,113.6055,432.3281" style="stroke:#181818;stroke-width:1;"/><line style="stroke:#181818;stroke-width:1;" x1="113.6055" x2="113.6055" y1="472.2969" y2="516.9648"/><polygon fill="#181818" points="109.6055,506.9648,113.6055,516.9648,117.6055,506.9648,113.6055,510.9648" style="stroke:#181818;stroke-width:1;"/><line style="stroke:#181818;stroke-width:1;" x1="335.9595" x2="335.9595" y1="405.5234" y2="438.3281"/><polygon fill="#181818" points="331.9595,428.3281,335.9595,438.3281,339.9595,428.3281,335.9595,432.3281" style="stroke:#181818;stroke-width:1;"/><line style="stroke:#181818;stroke-width:1;" x1="335.9595" x2="335.9595" y1="472.2969" y2="516.9648"/><polygon fill="#181818" points="331.9595,506.9648,335.9595,516.9648,339.9595,506.9648,335.9595,510.9648" style="stroke:#181818;stroke-width:1;"/><line style="stroke:#181818;stroke-width:1;" x1="576.0662" x2="576.0662" y1="405.5234" y2="438.3281"/><polygon fill="#181818" points="572.0662,428.3281,576.0662,438.3281,580.0662,428.3281,576.0662,432.3281" style="stroke:#181818;stroke-width:1;"/><line style="stroke:#181818;stroke-width:1;" x1="576.0662" x2="576.0662" y1="472.2969" y2="516.9648"/><polygon fill="#181818" points="572.0662,506.9648,576.0662,516.9648,580.0662,506.9648,576.0662,510.9648" style="stroke:#181818;stroke-width:1;"/><line style="stroke:#181818;stroke-width:1;" x1="182.8855" x2="226.2109" y1="392.7188" y2="392.7188"/><polygon fill="#181818" points="216.2109,388.7188,226.2109,392.7188,216.2109,396.7188,220.2109,392.7188" style="stroke:#181818;stroke-width:1;"/><line style="stroke:#181818;stroke-width:1;" x1="445.708" x2="465.708" y1="392.7188" y2="392.7188"/><polygon fill="#181818" points="455.708,388.7188,465.708,392.7188,455.708,396.7188,459.708,392.7188" style="stroke:#181818;stroke-width:1;"/><line style="stroke:#181818;stroke-width:1;" x1="448.3782" x2="448.3782" y1="330.6172" y2="364.9141"/><line style="stroke:#181818;stroke-width:1;" x1="448.3782" x2="113.6055" y1="364.9141" y2="364.9141"/><line style="stroke:#181818;stroke-width:1;" x1="113.6055" x2="113.6055" y1="364.9141" y2="379.9141"/><polygon fill="#181818" points="109.6055,369.9141,113.6055,379.9141,117.6055,369.9141,113.6055,373.9141" style="stroke:#181818;stroke-width:1;"/><line style="stroke:#181818;stroke-width:1;" x1="686.4243" x2="791.0903" y1="392.7188" y2="392.7188"/><line style="stroke:#181818;stroke-width:1;" x1="791.0903" x2="791.0903" y1="392.7188" y2="427.1367"/><polygon fill="#181818" points="787.0903,417.1367,791.0903,427.1367,795.0903,417.1367,791.0903,421.1367" style="stroke:#181818;stroke-width:1;"/><line style="stroke:#181818;stroke-width:1;" x1="791.0903" x2="791.0903" y1="475.0742" y2="516.9648"/><polygon fill="#181818" points="787.0903,506.9648,791.0903,516.9648,795.0903,506.9648,791.0903,510.9648" style="stroke:#181818;stroke-width:1;"/><line style="stroke:#181818;stroke-width:1;" x1="113.6055" x2="791.0903" y1="516.9648" y2="516.9648"/><line style="stroke:#181818;stroke-width:1;" x1="448.3782" x2="448.3782" y1="707.7539" y2="738.2695"/><polygon fill="#181818" points="444.3782,728.2695,448.3782,738.2695,452.3782,728.2695,448.3782,732.2695" style="stroke:#181818;stroke-width:1;"/><line style="stroke:#181818;stroke-width:1;" x1="448.3782" x2="448.3782" y1="635.4141" y2="659.8164"/><polygon fill="#181818" points="444.3782,649.8164,448.3782,659.8164,452.3782,649.8164,448.3782,653.8164" style="stroke:#181818;stroke-width:1;"/><line style="stroke:#181818;stroke-width:1;" x1="496.292" x2="578.3323" y1="623.4141" y2="623.4141"/><polygon fill="#181818" points="574.3323,708.2695,578.3323,718.2695,582.3323,708.2695,578.3323,712.2695" style="stroke:#181818;stroke-width:1;"/><line style="stroke:#181818;stroke-width:1;" x1="578.3323" x2="578.3323" y1="623.4141" y2="804.2383"/><line style="stroke:#181818;stroke-width:1;" x1="578.3323" x2="460.3782" y1="804.2383" y2="804.2383"/><polygon fill="#181818" points="470.3782,800.2383,460.3782,804.2383,470.3782,808.2383,466.3782,804.2383" style="stroke:#181818;stroke-width:1;"/><line style="stroke:#181818;stroke-width:1;" x1="448.3782" x2="448.3782" y1="772.2383" y2="792.2383"/><polygon fill="#181818" points="444.3782,782.2383,448.3782,792.2383,452.3782,782.2383,448.3782,786.2383" style="stroke:#181818;stroke-width:1;"/><line style="stroke:#181818;stroke-width:1;" x1="448.3782" x2="448.3782" y1="587.0117" y2="611.4141"/><polygon fill="#181818" points="444.3782,601.4141,448.3782,611.4141,452.3782,601.4141,448.3782,605.4141" style="stroke:#181818;stroke-width:1;"/><line style="stroke:#181818;stroke-width:1;" x1="482.5903" x2="600.3323" y1="575.0117" y2="575.0117"/><polygon fill="#181818" points="596.3323,708.2695,600.3323,718.2695,604.3323,708.2695,600.3323,712.2695" style="stroke:#181818;stroke-width:1;"/><line style="stroke:#181818;stroke-width:1;" x1="600.3323" x2="600.3323" y1="575.0117" y2="848.2383"/><line style="stroke:#181818;stroke-width:1;" x1="600.3323" x2="460.3782" y1="848.2383" y2="848.2383"/><polygon fill="#181818" points="470.3782,844.2383,460.3782,848.2383,470.3782,852.2383,466.3782,848.2383" style="stroke:#181818;stroke-width:1;"/><line style="stroke:#181818;stroke-width:1;" x1="448.3782" x2="448.3782" y1="816.2383" y2="836.2383"/><polygon fill="#181818" points="444.3782,826.2383,448.3782,836.2383,452.3782,826.2383,448.3782,830.2383" style="stroke:#181818;stroke-width:1;"/><line style="stroke:#181818;stroke-width:1;" x1="448.3782" x2="448.3782" y1="516.9648" y2="563.0117"/><polygon fill="#181818" points="444.3782,553.0117,448.3782,563.0117,452.3782,553.0117,448.3782,557.0117" style="stroke:#181818;stroke-width:1;"/><line style="stroke:#181818;stroke-width:1;" x1="278.8777" x2="278.8777" y1="948.207" y2="983.207"/><polygon fill="#181818" points="274.8777,973.207,278.8777,983.207,282.8777,973.207,278.8777,977.207" style="stroke:#181818;stroke-width:1;"/><line style="stroke:#181818;stroke-width:1;" x1="355.511" x2="278.8777" y1="892.2383" y2="892.2383"/><line style="stroke:#181818;stroke-width:1;" x1="278.8777" x2="278.8777" y1="892.2383" y2="914.2383"/><polygon fill="#181818" points="274.8777,904.2383,278.8777,914.2383,282.8777,904.2383,278.8777,908.2383" style="stroke:#181818;stroke-width:1;"/><line style="stroke:#181818;stroke-width:1;" x1="541.2454" x2="617.8787" y1="892.2383" y2="892.2383"/><line style="stroke:#181818;stroke-width:1;" x1="617.8787" x2="617.8787" y1="892.2383" y2="914.2383"/><polygon fill="#181818" points="613.8787,904.2383,617.8787,914.2383,621.8787,904.2383,617.8787,908.2383" style="stroke:#181818;stroke-width:1;"/><line style="stroke:#181818;stroke-width:1;" x1="617.8787" x2="617.8787" y1="976.1445" y2="1010.207"/><line style="stroke:#181818;stroke-width:1;" x1="617.8787" x2="448.3782" y1="1010.207" y2="1010.207"/><line style="stroke:#181818;stroke-width:1;" x1="448.3782" x2="448.3782" y1="1010.207" y2="1025.207"/><polygon fill="#181818" points="444.3782,1015.207,448.3782,1025.207,452.3782,1015.207,448.3782,1019.207" style="stroke:#181818;stroke-width:1;"/><line style="stroke:#181818;stroke-width:1;" x1="448.3782" x2="448.3782" y1="860.2383" y2="880.2383"/><polygon fill="#181818" points="444.3782,870.2383,448.3782,880.2383,452.3782,870.2383,448.3782,874.2383" style="stroke:#181818;stroke-width:1;"/><line style="stroke:#181818;stroke-width:1;" x1="1374.8833" x2="1374.8833" y1="543.0117" y2="569.0586"/><polygon fill="#181818" points="1370.8833,559.0586,1374.8833,569.0586,1378.8833,559.0586,1374.8833,563.0586" style="stroke:#181818;stroke-width:1;"/><line style="stroke:#181818;stroke-width:1;" x1="448.3782" x2="448.3782" y1="127.9688" y2="160.7734"/><polygon fill="#181818" points="444.3782,150.7734,448.3782,160.7734,452.3782,150.7734,448.3782,154.7734" style="stroke:#181818;stroke-width:1;"/><line style="stroke:#181818;stroke-width:1;" x1="1047.1499" x2="1047.1499" y1="127.9688" y2="147.9688"/><polygon fill="#181818" points="1043.1499,137.9688,1047.1499,147.9688,1051.1499,137.9688,1047.1499,141.9688" style="stroke:#181818;stroke-width:1;"/><line style="stroke:#181818;stroke-width:1;" x1="1047.1499" x2="1047.1499" y1="195.9063" y2="1025.207"/><polygon fill="#181818" points="1043.1499,1015.207,1047.1499,1025.207,1051.1499,1015.207,1047.1499,1019.207" style="stroke:#181818;stroke-width:1;"/><line style="stroke:#181818;stroke-width:1;" x1="480.5386" x2="1013.6816" y1="115.9688" y2="115.9688"/><polygon fill="#181818" points="1003.6816,111.9688,1013.6816,115.9688,1003.6816,119.9688,1007.6816,115.9688" style="stroke:#181818;stroke-width:1;"/><line style="stroke:#181818;stroke-width:1;" x1="776.1116" x2="776.1116" y1="83.9688" y2="88.9688"/><line style="stroke:#181818;stroke-width:1;" x1="776.1116" x2="448.3782" y1="88.9688" y2="88.9688"/><line style="stroke:#181818;stroke-width:1;" x1="448.3782" x2="448.3782" y1="88.9688" y2="103.9688"/><polygon fill="#181818" points="444.3782,93.9688,448.3782,103.9688,452.3782,93.9688,448.3782,97.9688" style="stroke:#181818;stroke-width:1;"/><line style="stroke:#181818;stroke-width:1;" x1="1080.6182" x2="1374.8833" y1="115.9688" y2="115.9688"/><line style="stroke:#181818;stroke-width:1;" x1="1374.8833" x2="1374.8833" y1="115.9688" y2="495.0742"/><polygon fill="#181818" points="1370.8833,485.0742,1374.8833,495.0742,1378.8833,485.0742,1374.8833,489.0742" style="stroke:#181818;stroke-width:1;"/><line style="stroke:#181818;stroke-width:1;" x1="448.3782" x2="1047.1499" y1="1025.207" y2="1025.207"/><line style="stroke:#181818;stroke-width:1;" x1="776.1116" x2="776.1116" y1="1105.4727" y2="1125.4727"/><polygon fill="#181818" points="772.1116,1115.4727,776.1116,1125.4727,780.1116,1115.4727,776.1116,1119.4727" style="stroke:#181818;stroke-width:1;"/><line style="stroke:#181818;stroke-width:1;" x1="776.1116" x2="776.1116" y1="1159.4414" y2="1179.4414"/><polygon fill="#181818" points="772.1116,1169.4414,776.1116,1179.4414,780.1116,1169.4414,776.1116,1173.4414" style="stroke:#181818;stroke-width:1;"/><line style="stroke:#181818;stroke-width:1;" x1="776.1116" x2="776.1116" y1="1025.207" y2="1071.5039"/><polygon fill="#181818" points="772.1116,1061.5039,776.1116,1071.5039,780.1116,1061.5039,776.1116,1065.5039" style="stroke:#181818;stroke-width:1;"/><line style="stroke:#181818;stroke-width:1;" x1="776.1116" x2="776.1116" y1="1227.3789" y2="1259.3789"/><polygon fill="#181818" points="772.1116,1249.3789,776.1116,1259.3789,780.1116,1249.3789,776.1116,1253.3789" style="stroke:#181818;stroke-width:1;"/><!--SRC=[ZLLDZzis4BthLmnoYGtONg17Rz4YtJJP1O9ikzrRKGIqD988IwJAeU0QHVvxtv3oHrPfsfDfpl3DcpSVUatbs5j71n_sGckABHExYdnDXiBeQF7mtNARhikMI_YOEd8Wu-YX7phksUbVUAvmLoN7WpdIpfHxYZxzVpmu3flYDRtr28O7MnfyrstwQaN2PRJU2NatZ_sVW4zmvx1Dpb86EqIv2UbkNLdJ1DFBHbeoCJqBtaS5JsSUlDZemt5JoDwwmS2Pf3MLFrZNK6qwuIjBnRKPk_ZEk_ZHz4nYdAo5WwsBGg89iTW-0_Q59fgEt1QsfiKJ2zx_kDJeKBNoZfS5qVQ9JKvId1ca1KFJ6EjWMkXjRSee56pJnadvn7vqorjz_S5ApiqFG1t6haDcVuuiU3HbkWl6bIsSOmiTShNBrWk3qy-_FMUSCujM3wNlUtkMIbiZ1cPrX1ZHQi7erLikhUXfCOm1H4UNAhaYv-dXvd7vYlx60o9D_esR4qp6gUgPuraSvvV92cAriHrNMmMT8Tmc9qQXDCQZ0yunmvthd3okY_9c66ZnlNHZyyFlSFjZ-QsWnddOqEnZR7tuCjpzNAXPTZYYZIwwlX3qMw6lwm0Mm9QMgmi5MXnPpgy68m8hcIfNiRDkFzaE6a7lhCW87aQ0vtX2SXKQcEXpaUlqIy8vypg7I3MymfvxW4HghNNfqGpW8I-9BDu7CxI_Vb3ZNOV-Ur12Jrmp9hO4pkq9w5z6ualAfzyBxSi2qgZ8Ly-1vrotTwrn3MTNi-DEzqfYVuDHZgFSc8D1bxjcdNTUZYpH3yL9_LF9jZ-DjijHjLfeidIzKESr2iTfoq5mR3eq81AbskSXpgNEQtMLfo4Ri5eEw3fqotiRxyTTKYRdU-g-NUVBFLSvDHtWvmi1pNooVmfinATbKatZkfuQDF4w11j1wZGtfi5pHCifcftpeJUTXfvMLGp7LLQpLQtHcxErV5fSZly2azFacRGpSWkcAG179M93CgSCaxuvpU9gpznhf5cO72Ju0xcnt-4_0F5DCg59NvXf-spl9accFVCrFcd__V-Ey1fzVL8pFVxeewsFSmcksl1K6ume6Y4g4fNW6yVWA6sG6XfyBhHZyhO7Y6uqRH9ThvLdIOj0LQApm19vsC0L55h5L5dnQUMis8RUvUVG1XYTRngkDggnGk7p1gn_0000]--></g></svg>