<svg xmlns="http://www.w3.org/2000/svg" xmlns:xlink="http://www.w3.org/1999/xlink" contentStyleType="text/css" data-diagram-type="ACTIVITY" height="1408px" preserveAspectRatio="none" style="width:1080px;height:1408px;background:#FFFFFF;" version="1.1" viewBox="0 0 1080 1408" width="1080px" zoomAndPan="magnify"><defs/><g><ellipse cx="544.5889" cy="20" fill="#222222" rx="10" ry="10" style="stroke:#222222;stroke-width:1;"/><rect fill="#F1F1F1" height="33.9688" rx="12.5" ry="12.5" style="stroke:#181818;stroke-width:0.5;" width="269.0352" x="410.0713" y="50"/><text fill="#000000" font-family="sans-serif" font-size="12" lengthAdjust="spacing" textLength="249.0352" x="420.0713" y="71.1387">The Reviewer approved the head commit</text><rect fill="#F1F1F1" height="47.9375" rx="12.5" ry="12.5" style="stroke:#181818;stroke-width:0.5;" width="208.7656" x="440.2061" y="103.9688"/><text fill="#000000" font-family="sans-serif" font-size="12" lengthAdjust="spacing" textLength="188.7656" x="450.2061" y="125.1074">Read the issue of the run again</text><text fill="#000000" font-family="sans-serif" font-size="12" lengthAdjust="spacing" textLength="145.9043" x="450.2061" y="139.0762">and the required checks</text><polygon fill="#F1F1F1" points="32,171.9063,189.5449,171.9063,201.5449,184.7109,189.5449,197.5156,32,197.5156,20,184.7109,32,171.9063" style="stroke:#181818;stroke-width:0.5;"/><text fill="#000000" font-family="sans-serif" font-size="11" lengthAdjust="spacing" textLength="13.7017" x="114.7725" y="207.7261">no</text><text fill="#000000" font-family="sans-serif" font-size="11" lengthAdjust="spacing" textLength="126.5752" x="32" y="182.1167">Exactly one risk/* label</text><text fill="#000000" font-family="sans-serif" font-size="11" lengthAdjust="spacing" textLength="157.5449" x="32" y="194.9214">on the issue? (DecideMerge)</text><rect fill="#F1F1F1" height="47.9375" rx="12.5" ry="12.5" style="stroke:#181818;stroke-width:0.5;" width="166.2793" x="27.6328" y="230.0308"/><text fill="#000000" font-family="sans-serif" font-size="12" lengthAdjust="spacing" textLength="146.2793" x="37.6328" y="251.1694">Stop step of #81, row I6</text><text fill="#000000" font-family="sans-serif" font-size="12" lengthAdjust="spacing" textLength="130.4473" x="37.6328" y="265.1382">(no or two risk labels)</text><ellipse cx="110.7725" cy="323.9683" fill="none" rx="11" ry="11" style="stroke:#222222;stroke-width:1;"/><ellipse cx="110.7725" cy="323.9683" fill="#222222" rx="6" ry="6" style="stroke:#222222;stroke-width:1;"/><polygon fill="#F1F1F1" points="263.7856,171.9063,383.5933,171.9063,395.5933,184.7109,383.5933,197.5156,263.7856,197.5156,251.7856,184.7109,263.7856,171.9063" style="stroke:#181818;stroke-width:0.5;"/><text fill="#000000" font-family="sans-serif" font-size="11" lengthAdjust="spacing" textLength="13.7017" x="327.6895" y="207.7261">no</text><text fill="#000000" font-family="sans-serif" font-size="11" lengthAdjust="spacing" textLength="119.8076" x="263.7856" y="182.1167">Required checks pass</text><text fill="#000000" font-family="sans-serif" font-size="11" lengthAdjust="spacing" textLength="117.1221" x="263.7856" y="194.9214">on the head commit?</text><rect fill="#F1F1F1" height="33.9688" rx="12.5" ry="12.5" style="stroke:#181818;stroke-width:0.5;" width="204.2891" x="221.5449" y="230.0308"/><text fill="#000000" font-family="sans-serif" font-size="12" lengthAdjust="spacing" textLength="184.2891" x="231.5449" y="251.1694">Back to cumin/status/checking</text><ellipse cx="323.6895" cy="309.9995" fill="none" rx="11" ry="11" style="stroke:#222222;stroke-width:1;"/><ellipse cx="323.6895" cy="309.9995" fill="#222222" rx="6" ry="6" style="stroke:#222222;stroke-width:1;"/><polygon fill="#F1F1F1" points="583.647,172.7109,631.6538,172.7109,643.6538,184.7109,631.6538,196.7109,583.647,196.7109,571.647,184.7109,583.647,172.7109" style="stroke:#181818;stroke-width:0.5;"/><text fill="#000000" font-family="sans-serif" font-size="11" lengthAdjust="spacing" textLength="13.7017" x="611.6504" y="206.9214">no</text><text fill="#000000" font-family="sans-serif" font-size="11" lengthAdjust="spacing" textLength="48.0068" x="583.647" y="188.519">risk/low?</text><text fill="#000000" font-family="sans-serif" font-size="11" lengthAdjust="spacing" textLength="19.0083" x="643.6538" y="182.1167">yes</text><rect fill="#F1F1F1" height="75.875" rx="12.5" ry="12.5" style="stroke:#181818;stroke-width:0.5;" width="323.6328" x="445.834" y="229.2261"/><text fill="#000000" font-family="sans-serif" font-size="12" lengthAdjust="spacing" textLength="252.8848" x="455.834" y="250.3647">I7: cumin/status/awaiting-merge-decision,</text><text fill="#000000" font-family="sans-serif" font-size="12" lengthAdjust="spacing" textLength="303.6328" x="455.834" y="264.3335">then cumin-core requests the review of the Owner</text><text fill="#000000" font-family="sans-serif" font-size="12" lengthAdjust="spacing" textLength="283.0898" x="455.834" y="278.3022">(requested_reviewers; a failure is only logged),</text><text fill="#000000" font-family="sans-serif" font-size="12" lengthAdjust="spacing" textLength="252.9199" x="455.834" y="292.271">then one notification with the pull request</text><ellipse cx="607.6504" cy="351.1011" fill="none" rx="11" ry="11" style="stroke:#222222;stroke-width:1;"/><ellipse cx="607.6504" cy="351.1011" fill="#222222" rx="6" ry="6" style="stroke:#222222;stroke-width:1;"/><rect fill="#F1F1F1" height="61.9063" rx="12.5" ry="12.5" style="stroke:#181818;stroke-width:0.5;" width="279.7109" x="789.4668" y="260.9058"/><text fill="#000000" font-family="sans-serif" font-size="12" lengthAdjust="spacing" textLength="151.002" x="799.4668" y="282.0444">I6: cumin/status/merging</text><text fill="#000000" font-family="sans-serif" font-size="12" lengthAdjust="spacing" textLength="259.7109" x="799.4668" y="296.0132">(only the label changes; I12 does the same</text><text fill="#000000" font-family="sans-serif" font-size="12" lengthAdjust="spacing" textLength="195.1406" x="799.4668" y="309.9819">after the approval of the Owner)</text><rect fill="none" height="983.0742" style="stroke:#000000;stroke-width:1.5;" width="986.9883" x="51.0947" y="372.1011"/><path d="M415.9414,372.1011 L415.9414,381.3979 L405.9414,391.3979 L51.0947,391.3979" fill="none" style="stroke:#000000;stroke-width:1.5;"/><text fill="#000000" font-family="sans-serif" font-size="14" lengthAdjust="spacing" textLength="354.8467" x="54.0947" y="386.0962">At every poll, for an issue in cumin/status/merging</text><rect fill="#F1F1F1" height="61.9063" rx="12.5" ry="12.5" style="stroke:#181818;stroke-width:0.5;" width="283.7539" x="402.7119" y="408.3979"/><text fill="#000000" font-family="sans-serif" font-size="12" lengthAdjust="spacing" textLength="263.7539" x="412.7119" y="429.5366">Read the issue again: the actor of the label,</text><text fill="#000000" font-family="sans-serif" font-size="12" lengthAdjust="spacing" textLength="248.7656" x="412.7119" y="443.5054">the pull request, the reviews, the checks,</text><text fill="#000000" font-family="sans-serif" font-size="12" lengthAdjust="spacing" textLength="249.0352" x="412.7119" y="457.4741">the permissions, and the required checks</text><rect fill="#F1F1F1" height="33.9688" rx="12.5" ry="12.5" style="stroke:#181818;stroke-width:0.5;" width="86.2109" x="501.4834" y="540.3159"/><text fill="#000000" font-family="sans-serif" font-size="12" lengthAdjust="spacing" textLength="66.2109" x="511.4834" y="561.4546">Do nothing</text><ellipse cx="544.5889" cy="613.3979" fill="none" rx="11" ry="11" style="stroke:#222222;stroke-width:1;"/><ellipse cx="544.5889" cy="613.3979" fill="#222222" rx="6" ry="6" style="stroke:#222222;stroke-width:1;"/><polygon fill="#F1F1F1" points="478.0034,490.3042,611.1743,490.3042,623.1743,503.1089,611.1743,515.9136,478.0034,515.9136,466.0034,503.1089,478.0034,490.3042" style="stroke:#181818;stroke-width:0.5;"/><text fill="#000000" font-family="sans-serif" font-size="11" lengthAdjust="spacing" textLength="13.7017" x="548.5889" y="526.124">no</text><text fill="#000000" font-family="sans-serif" font-size="11" lengthAdjust="spacing" textLength="133.1709" x="478.0034" y="500.5146">cumin-core or an Owner</text><text fill="#000000" font-family="sans-serif" font-size="11" lengthAdjust="spacing" textLength="91.9424" x="478.0034" y="513.3193">added the label?</text><polygon fill="#F1F1F1" points="455.7402,714.8003,633.4375,714.8003,645.4375,726.8003,633.4375,738.8003,455.7402,738.8003,443.7402,726.8003,455.7402,714.8003" style="stroke:#181818;stroke-width:0.5;"/><text fill="#000000" font-family="sans-serif" font-size="11" lengthAdjust="spacing" textLength="177.6973" x="455.7402" y="730.6084">A linked pull request is merged?</text><text fill="#000000" font-family="sans-serif" font-size="11" lengthAdjust="spacing" textLength="19.0083" x="424.7319" y="724.2061">yes</text><text fill="#000000" font-family="sans-serif" font-size="11" lengthAdjust="spacing" textLength="13.7017" x="645.4375" y="724.2061">no</text><rect fill="#F1F1F1" height="75.875" rx="12.5" ry="12.5" style="stroke:#181818;stroke-width:0.5;" width="309.6348" x="262.9668" y="748.8003"/><text fill="#000000" font-family="sans-serif" font-size="12" lengthAdjust="spacing" textLength="145.3184" x="272.9668" y="769.939">Close the merged issue:</text><text fill="#000000" font-family="sans-serif" font-size="12" lengthAdjust="spacing" textLength="205.1484" x="272.9668" y="783.9077">cumin-core closes it as completed</text><text fill="#000000" font-family="sans-serif" font-size="12" lengthAdjust="spacing" textLength="146.8828" x="272.9668" y="797.8765">when GitHub left it open</text><text fill="#000000" font-family="sans-serif" font-size="12" lengthAdjust="spacing" textLength="289.6348" x="272.9668" y="811.8452">(a lasting failure: stop the merge for the Owner)</text><rect fill="#F1F1F1" height="47.9375" rx="12.5" ry="12.5" style="stroke:#181818;stroke-width:0.5;" width="157.584" x="592.6016" y="748.8003"/><text fill="#000000" font-family="sans-serif" font-size="12" lengthAdjust="spacing" textLength="137.584" x="602.6016" y="769.939">Go back to the checks:</text><text fill="#000000" font-family="sans-serif" font-size="12" lengthAdjust="spacing" textLength="135.4805" x="602.6016" y="783.9077">cumin/status/checking</text><polygon fill="#F1F1F1" points="544.5889,830.6753,556.5889,842.6753,544.5889,854.6753,532.5889,842.6753,544.5889,830.6753" style="stroke:#181818;stroke-width:0.5;"/><ellipse cx="544.5889" cy="885.6753" fill="none" rx="11" ry="11" style="stroke:#222222;stroke-width:1;"/><ellipse cx="544.5889" cy="885.6753" fill="#222222" rx="6" ry="6" style="stroke:#222222;stroke-width:1;"/><polygon fill="#F1F1F1" points="484.3896,666.3979,604.7881,666.3979,616.7881,678.3979,604.7881,690.3979,484.3896,690.3979,472.3896,678.3979,484.3896,666.3979" style="stroke:#181818;stroke-width:0.5;"/><text fill="#000000" font-family="sans-serif" font-size="11" lengthAdjust="spacing" textLength="13.7017" x="548.5889" y="700.6084">no</text><text fill="#000000" font-family="sans-serif" font-size="11" lengthAdjust="spacing" textLength="120.3984" x="484.3896" y="682.2061">An open pull request?</text><rect fill="#F1F1F1" height="47.9375" rx="12.5" ry="12.5" style="stroke:#181818;stroke-width:0.5;" width="220.877" x="434.1504" y="988.687"/><text fill="#000000" font-family="sans-serif" font-size="12" lengthAdjust="spacing" textLength="137.584" x="444.1504" y="1009.8257">Go back to the checks:</text><text fill="#000000" font-family="sans-serif" font-size="12" lengthAdjust="spacing" textLength="200.877" x="444.1504" y="1023.7944">cumin/status/checking, no merge</text><ellipse cx="544.5889" cy="1068.7534" fill="none" rx="11" ry="11" style="stroke:#222222;stroke-width:1;"/><ellipse cx="544.5889" cy="1068.7534" fill="#222222" rx="6" ry="6" style="stroke:#222222;stroke-width:1;"/><polygon fill="#F1F1F1" points="450.3289,938.6753,638.8489,938.6753,650.8489,951.48,638.8489,964.2847,450.3289,964.2847,438.3289,951.48,450.3289,938.6753" style="stroke:#181818;stroke-width:0.5;"/><text fill="#000000" font-family="sans-serif" font-size="11" lengthAdjust="spacing" textLength="13.7017" x="548.5889" y="974.4951">no</text><text fill="#000000" font-family="sans-serif" font-size="11" lengthAdjust="spacing" textLength="188.52" x="450.3289" y="948.8857">The conditions of the merge hold?</text><text fill="#000000" font-family="sans-serif" font-size="11" lengthAdjust="spacing" textLength="126.3765" x="450.3289" y="961.6904">(MergeConditionsHold)</text><rect fill="#F1F1F1" height="61.9063" rx="12.5" ry="12.5" style="stroke:#181818;stroke-width:0.5;" width="318.3945" x="385.3916" y="1121.7534"/><text fill="#000000" font-family="sans-serif" font-size="12" lengthAdjust="spacing" textLength="298.3945" x="395.3916" y="1142.8921">Wait 5 seconds after an earlier merge of this poll.</text><text fill="#000000" font-family="sans-serif" font-size="12" lengthAdjust="spacing" textLength="240.9258" x="395.3916" y="1156.8608">cumin-core merges with merge_method</text><text fill="#000000" font-family="sans-serif" font-size="12" lengthAdjust="spacing" textLength="228.7031" x="395.3916" y="1170.8296">and sha = the approved head commit</text><polygon fill="#F1F1F1" points="78.3142,1203.6597,317.1292,1203.6597,329.1292,1216.4644,317.1292,1229.269,78.3142,1229.269,66.3142,1216.4644,78.3142,1203.6597" style="stroke:#181818;stroke-width:0.5;"/><text fill="#000000" font-family="sans-serif" font-size="11" lengthAdjust="spacing" textLength="19.0083" x="201.7217" y="1239.4795">yes</text><text fill="#000000" font-family="sans-serif" font-size="11" lengthAdjust="spacing" textLength="238.8149" x="78.3142" y="1213.8701">Merged, a lost answer, a temporary failure,</text><text fill="#000000" font-family="sans-serif" font-size="11" lengthAdjust="spacing" textLength="200.3418" x="78.3142" y="1226.6748">or 405 "Base branch was modified"?</text><rect fill="#F1F1F1" height="47.9375" rx="12.5" ry="12.5" style="stroke:#181818;stroke-width:0.5;" width="273.2539" x="61.0947" y="1262.0737"/><text fill="#000000" font-family="sans-serif" font-size="12" lengthAdjust="spacing" textLength="253.2539" x="71.0947" y="1283.2124">Keep cumin/status/merging, no comment.</text><text fill="#000000" font-family="sans-serif" font-size="12" lengthAdjust="spacing" textLength="251.707" x="71.0947" y="1297.1812">The next poll reads the pull request again</text><polygon fill="#F1F1F1" points="428.3477,1204.4644,604.9492,1204.4644,616.9492,1216.4644,604.9492,1228.4644,428.3477,1228.4644,416.3477,1216.4644,428.3477,1204.4644" style="stroke:#181818;stroke-width:0.5;"/><text fill="#000000" font-family="sans-serif" font-size="11" lengthAdjust="spacing" textLength="19.0083" x="520.6484" y="1238.6748">yes</text><text fill="#000000" font-family="sans-serif" font-size="11" lengthAdjust="spacing" textLength="176.6016" x="428.3477" y="1220.2725">Conflict? (405, mergeable false)</text><text fill="#000000" font-family="sans-serif" font-size="11" lengthAdjust="spacing" textLength="13.7017" x="616.9492" y="1213.8701">no</text><rect fill="#F1F1F1" height="61.9063" rx="12.5" ry="12.5" style="stroke:#181818;stroke-width:0.5;" width="324.5996" x="354.3486" y="1261.269"/><text fill="#000000" font-family="sans-serif" font-size="12" lengthAdjust="spacing" textLength="175.6992" x="364.3486" y="1282.4077">Request a conflict resolution:</text><text fill="#000000" font-family="sans-serif" font-size="12" lengthAdjust="spacing" textLength="304.5996" x="364.3486" y="1296.3765">cumin/status/implementing, then the Implementer</text><text fill="#000000" font-family="sans-serif" font-size="12" lengthAdjust="spacing" textLength="184.8223" x="364.3486" y="1310.3452">resolves it in the same session</text><rect fill="#F1F1F1" height="61.9063" rx="12.5" ry="12.5" style="stroke:#181818;stroke-width:0.5;" width="329.1348" x="698.9482" y="1257.4644"/><text fill="#000000" font-family="sans-serif" font-size="12" lengthAdjust="spacing" textLength="184.4707" x="708.9482" y="1278.603">Stop the merge for the Owner:</text><text fill="#000000" font-family="sans-serif" font-size="12" lengthAdjust="spacing" textLength="309.1348" x="708.9482" y="1292.5718">cumin/status/awaiting-decision, head moved (409),</text><text fill="#000000" font-family="sans-serif" font-size="12" lengthAdjust="spacing" textLength="143.7188" x="708.9482" y="1306.5405">or the answer of GitHub</text><ellipse cx="544.5889" cy="1386.1753" fill="none" rx="11" ry="11" style="stroke:#222222;stroke-width:1;"/><ellipse cx="544.5889" cy="1386.1753" fill="#222222" rx="6" ry="6" style="stroke:#222222;stroke-width:1;"/><line style="stroke:#181818;stroke-width:1;" x1="544.5889" x2="544.5889" y1="30" y2="50"/><polygon fill="#181818" points="540.5889,40,544.5889,50,548.5889,40,544.5889,44" style="stroke:#181818;stroke-width:1;"/><line style="stroke:#181818;stroke-width:1;" x1="544.5889" x2="544.5889" y1="83.9688" y2="103.9688"/><polygon fill="#181818" points="540.5889,93.9688,544.5889,103.9688,548.5889,93.9688,544.5889,97.9688" style="stroke:#181818;stroke-width:1;"/><line style="stroke:#181818;stroke-width:1;" x1="110.7725" x2="110.7725" y1="277.9683" y2="312.9683"/><polygon fill="#181818" points="106.7725,302.9683,110.7725,312.9683,114.7725,302.9683,110.7725,306.9683" style="stroke:#181818;stroke-width:1;"/><line style="stroke:#181818;stroke-width:1;" x1="323.6895" x2="323.6895" y1="263.9995" y2="298.9995"/><polygon fill="#181818" points="319.6895,288.9995,323.6895,298.9995,327.6895,288.9995,323.6895,292.9995" style="stroke:#181818;stroke-width:1;"/><line style="stroke:#181818;stroke-width:1;" x1="607.6504" x2="607.6504" y1="305.1011" y2="340.1011"/><polygon fill="#181818" points="603.6504,330.1011,607.6504,340.1011,611.6504,330.1011,607.6504,334.1011" style="stroke:#181818;stroke-width:1;"/><line style="stroke:#181818;stroke-width:1;" x1="110.7725" x2="110.7725" y1="197.5156" y2="230.0308"/><polygon fill="#181818" points="106.7725,220.0308,110.7725,230.0308,114.7725,220.0308,110.7725,224.0308" style="stroke:#181818;stroke-width:1;"/><line style="stroke:#181818;stroke-width:1;" x1="323.6895" x2="323.6895" y1="197.5156" y2="230.0308"/><polygon fill="#181818" points="319.6895,220.0308,323.6895,230.0308,327.6895,220.0308,323.6895,224.0308" style="stroke:#181818;stroke-width:1;"/><line style="stroke:#181818;stroke-width:1;" x1="607.6504" x2="607.6504" y1="196.7109" y2="229.2261"/><polygon fill="#181818" points="603.6504,219.2261,607.6504,229.2261,611.6504,219.2261,607.6504,223.2261" style="stroke:#181818;stroke-width:1;"/><line style="stroke:#181818;stroke-width:1;" x1="201.5449" x2="251.7856" y1="184.7109" y2="184.7109"/><polygon fill="#181818" points="241.7856,180.7109,251.7856,184.7109,241.7856,188.7109,245.7856,184.7109" style="stroke:#181818;stroke-width:1;"/><line style="stroke:#181818;stroke-width:1;" x1="395.5933" x2="571.647" y1="184.7109" y2="184.7109"/><polygon fill="#181818" points="561.647,180.7109,571.647,184.7109,561.647,188.7109,565.647,184.7109" style="stroke:#181818;stroke-width:1;"/><line style="stroke:#181818;stroke-width:1;" x1="544.5889" x2="544.5889" y1="151.9063" y2="156.9063"/><line style="stroke:#181818;stroke-width:1;" x1="544.5889" x2="110.7725" y1="156.9063" y2="156.9063"/><line style="stroke:#181818;stroke-width:1;" x1="110.7725" x2="110.7725" y1="156.9063" y2="171.9063"/><polygon fill="#181818" points="106.7725,161.9063,110.7725,171.9063,114.7725,161.9063,110.7725,165.9063" style="stroke:#181818;stroke-width:1;"/><line style="stroke:#181818;stroke-width:1;" x1="643.6538" x2="929.3223" y1="184.7109" y2="184.7109"/><line style="stroke:#181818;stroke-width:1;" x1="929.3223" x2="929.3223" y1="184.7109" y2="260.9058"/><polygon fill="#181818" points="925.3223,250.9058,929.3223,260.9058,933.3223,250.9058,929.3223,254.9058" style="stroke:#181818;stroke-width:1;"/><line style="stroke:#181818;stroke-width:1;" x1="929.3223" x2="929.3223" y1="322.812" y2="367.1011"/><line style="stroke:#181818;stroke-width:1;" x1="929.3223" x2="544.5889" y1="367.1011" y2="367.1011"/><line style="stroke:#181818;stroke-width:1;" x1="544.5889" x2="544.5889" y1="367.1011" y2="408.3979"/><polygon fill="#181818" points="540.5889,398.3979,544.5889,408.3979,548.5889,398.3979,544.5889,402.3979" style="stroke:#181818;stroke-width:1;"/><line style="stroke:#181818;stroke-width:1;" x1="544.5889" x2="544.5889" y1="574.2847" y2="602.3979"/><polygon fill="#181818" points="540.5889,592.3979,544.5889,602.3979,548.5889,592.3979,544.5889,596.3979" style="stroke:#181818;stroke-width:1;"/><line style="stroke:#181818;stroke-width:1;" x1="544.5889" x2="544.5889" y1="515.9136" y2="540.3159"/><polygon fill="#181818" points="540.5889,530.3159,544.5889,540.3159,548.5889,530.3159,544.5889,534.3159" style="stroke:#181818;stroke-width:1;"/><line style="stroke:#181818;stroke-width:1;" x1="623.1743" x2="635.1743" y1="503.1089" y2="503.1089"/><polygon fill="#181818" points="631.1743,572.3979,635.1743,582.3979,639.1743,572.3979,635.1743,576.3979" style="stroke:#181818;stroke-width:1;"/><line style="stroke:#181818;stroke-width:1;" x1="635.1743" x2="635.1743" y1="503.1089" y2="646.3979"/><line style="stroke:#181818;stroke-width:1;" x1="635.1743" x2="544.5889" y1="646.3979" y2="646.3979"/><line style="stroke:#181818;stroke-width:1;" x1="544.5889" x2="544.5889" y1="646.3979" y2="666.3979"/><polygon fill="#181818" points="540.5889,656.3979,544.5889,666.3979,548.5889,656.3979,544.5889,660.3979" style="stroke:#181818;stroke-width:1;"/><line style="stroke:#181818;stroke-width:1;" x1="544.5889" x2="544.5889" y1="470.3042" y2="490.3042"/><polygon fill="#181818" points="540.5889,480.3042,544.5889,490.3042,548.5889,480.3042,544.5889,484.3042" style="stroke:#181818;stroke-width:1;"/><line style="stroke:#181818;stroke-width:1;" x1="443.7402" x2="417.7842" y1="726.8003" y2="726.8003"/><line style="stroke:#181818;stroke-width:1;" x1="417.7842" x2="417.7842" y1="726.8003" y2="748.8003"/><polygon fill="#181818" points="413.7842,738.8003,417.7842,748.8003,421.7842,738.8003,417.7842,742.8003" style="stroke:#181818;stroke-width:1;"/><line style="stroke:#181818;stroke-width:1;" x1="645.4375" x2="671.3936" y1="726.8003" y2="726.8003"/><line style="stroke:#181818;stroke-width:1;" x1="671.3936" x2="671.3936" y1="726.8003" y2="748.8003"/><polygon fill="#181818" points="667.3936,738.8003,671.3936,748.8003,675.3936,738.8003,671.3936,742.8003" style="stroke:#181818;stroke-width:1;"/><line style="stroke:#181818;stroke-width:1;" x1="417.7842" x2="417.7842" y1="824.6753" y2="842.6753"/><line style="stroke:#181818;stroke-width:1;" x1="417.7842" x2="532.5889" y1="842.6753" y2="842.6753"/><polygon fill="#181818" points="522.5889,838.6753,532.5889,842.6753,522.5889,846.6753,526.5889,842.6753" style="stroke:#181818;stroke-width:1;"/><line style="stroke:#181818;stroke-width:1;" x1="671.3936" x2="671.3936" y1="796.7378" y2="842.6753"/><line style="stroke:#181818;stroke-width:1;" x1="671.3936" x2="556.5889" y1="842.6753" y2="842.6753"/><polygon fill="#181818" points="566.5889,838.6753,556.5889,842.6753,566.5889,846.6753,562.5889,842.6753" style="stroke:#181818;stroke-width:1;"/><line style="stroke:#181818;stroke-width:1;" x1="544.5889" x2="544.5889" y1="854.6753" y2="874.6753"/><polygon fill="#181818" points="540.5889,864.6753,544.5889,874.6753,548.5889,864.6753,544.5889,868.6753" style="stroke:#181818;stroke-width:1;"/><line style="stroke:#181818;stroke-width:1;" x1="544.5889" x2="544.5889" y1="690.3979" y2="714.8003"/><polygon fill="#181818" points="540.5889,704.8003,544.5889,714.8003,548.5889,704.8003,544.5889,708.8003" style="stroke:#181818;stroke-width:1;"/><line style="stroke:#181818;stroke-width:1;" x1="616.7881" x2="770.1855" y1="678.3979" y2="678.3979"/><polygon fill="#181818" points="766.1855,800.2378,770.1855,810.2378,774.1855,800.2378,770.1855,804.2378" style="stroke:#181818;stroke-width:1;"/><line style="stroke:#181818;stroke-width:1;" x1="770.1855" x2="770.1855" y1="678.3979" y2="918.6753"/><line style="stroke:#181818;stroke-width:1;" x1="770.1855" x2="544.5889" y1="918.6753" y2="918.6753"/><line style="stroke:#181818;stroke-width:1;" x1="544.5889" x2="544.5889" y1="918.6753" y2="938.6753"/><polygon fill="#181818" points="540.5889,928.6753,544.5889,938.6753,548.5889,928.6753,544.5889,932.6753" style="stroke:#181818;stroke-width:1;"/><line style="stroke:#181818;stroke-width:1;" x1="544.5889" x2="544.5889" y1="1036.6245" y2="1057.7534"/><polygon fill="#181818" points="540.5889,1047.7534,544.5889,1057.7534,548.5889,1047.7534,544.5889,1051.7534" style="stroke:#181818;stroke-width:1;"/><line style="stroke:#181818;stroke-width:1;" x1="544.5889" x2="544.5889" y1="964.2847" y2="988.687"/><polygon fill="#181818" points="540.5889,978.687,544.5889,988.687,548.5889,978.687,544.5889,982.687" style="stroke:#181818;stroke-width:1;"/><line style="stroke:#181818;stroke-width:1;" x1="650.8489" x2="665.0273" y1="951.48" y2="951.48"/><polygon fill="#181818" points="661.0273,1027.7534,665.0273,1037.7534,669.0273,1027.7534,665.0273,1031.7534" style="stroke:#181818;stroke-width:1;"/><line style="stroke:#181818;stroke-width:1;" x1="665.0273" x2="665.0273" y1="951.48" y2="1101.7534"/><line style="stroke:#181818;stroke-width:1;" x1="665.0273" x2="544.5889" y1="1101.7534" y2="1101.7534"/><line style="stroke:#181818;stroke-width:1;" x1="544.5889" x2="544.5889" y1="1101.7534" y2="1121.7534"/><polygon fill="#181818" points="540.5889,1111.7534,544.5889,1121.7534,548.5889,1111.7534,544.5889,1115.7534" style="stroke:#181818;stroke-width:1;"/><line style="stroke:#181818;stroke-width:1;" x1="197.7217" x2="197.7217" y1="1229.269" y2="1262.0737"/><polygon fill="#181818" points="193.7217,1252.0737,197.7217,1262.0737,201.7217,1252.0737,197.7217,1256.0737" style="stroke:#181818;stroke-width:1;"/><line style="stroke:#181818;stroke-width:1;" x1="197.7217" x2="197.7217" y1="1310.0112" y2="1343.1753"/><polygon fill="#181818" points="193.7217,1333.1753,197.7217,1343.1753,201.7217,1333.1753,197.7217,1337.1753" style="stroke:#181818;stroke-width:1;"/><line style="stroke:#181818;stroke-width:1;" x1="516.6484" x2="516.6484" y1="1228.4644" y2="1261.269"/><polygon fill="#181818" points="512.6484,1251.269,516.6484,1261.269,520.6484,1251.269,516.6484,1255.269" style="stroke:#181818;stroke-width:1;"/><line style="stroke:#181818;stroke-width:1;" x1="516.6484" x2="516.6484" y1="1323.1753" y2="1343.1753"/><polygon fill="#181818" points="512.6484,1333.1753,516.6484,1343.1753,520.6484,1333.1753,516.6484,1337.1753" style="stroke:#181818;stroke-width:1;"/><line style="stroke:#181818;stroke-width:1;" x1="329.1292" x2="416.3477" y1="1216.4644" y2="1216.4644"/><polygon fill="#181818" points="406.3477,1212.4644,416.3477,1216.4644,406.3477,1220.4644,410.3477,1216.4644" style="stroke:#181818;stroke-width:1;"/><line style="stroke:#181818;stroke-width:1;" x1="544.5889" x2="544.5889" y1="1183.6597" y2="1188.6597"/><line style="stroke:#181818;stroke-width:1;" x1="544.5889" x2="197.7217" y1="1188.6597" y2="1188.6597"/><line style="stroke:#181818;stroke-width:1;" x1="197.7217" x2="197.7217" y1="1188.6597" y2="1203.6597"/><polygon fill="#181818" points="193.7217,1193.6597,197.7217,1203.6597,201.7217,1193.6597,197.7217,1197.6597" style="stroke:#181818;stroke-width:1;"/><line style="stroke:#181818;stroke-width:1;" x1="616.9492" x2="863.5156" y1="1216.4644" y2="1216.4644"/><line style="stroke:#181818;stroke-width:1;" x1="863.5156" x2="863.5156" y1="1216.4644" y2="1257.4644"/><polygon fill="#181818" points="859.5156,1247.4644,863.5156,1257.4644,867.5156,1247.4644,863.5156,1251.4644" style="stroke:#181818;stroke-width:1;"/><line style="stroke:#181818;stroke-width:1;" x1="863.5156" x2="863.5156" y1="1319.3706" y2="1343.1753"/><polygon fill="#181818" points="859.5156,1333.1753,863.5156,1343.1753,867.5156,1333.1753,863.5156,1337.1753" style="stroke:#181818;stroke-width:1;"/><line style="stroke:#181818;stroke-width:1;" x1="197.7217" x2="863.5156" y1="1343.1753" y2="1343.1753"/><line style="stroke:#181818;stroke-width:1;" x1="544.5889" x2="544.5889" y1="1343.1753" y2="1375.1753"/><polygon fill="#181818" points="540.5889,1365.1753,544.5889,1375.1753,548.5889,1365.1753,544.5889,1369.1753" style="stroke:#181818;stroke-width:1;"/><!--SRC=[VLLHZzis37xtho1k3qs69BSEwtLpC1pQtjO6mpOW7R37Gh7fH8WiUP9oxc7OVnz9sJuxIGla8POeyYE_Z-GBA4wrjj0wVmomX7X0K4tZtIEMq9oC0O__d314c6tk5h1vFGTbIp4B4Pi0z5Oyt8QeuYdSrkZtskvNsGjuS7I3DkRGE6DMTRc0W4NKpWBzs0KR9qTilqLRei_1doo4mkicXbilPyjIgxrNTLY50wWeRxrp4LoL_cFZWexEFwsoSDIsKMGCuQ1Arn8Og9G9EBefiL8d4tzrDlwXQaAWR5W6zBhACih3nop_YznkyL5ZY_wv8XpiWAg4mjMrZkiit_8N7-iGJZW0eXJKNccRzTNYCcfFBee35iUmpdG5iry-goAQ9oe76UXmlFqMZDgXoRhwYCzxc3rWeKlydQird_EDXPbrymmW_nXT8nNaqD_y-791XMbXSqTtP0BEGsoTE4-kmtnDLu5UPVI1Z68xXGQD2g57C4hs_YpoMrKS8Ref_UA2IduHHD8phZttidcTJpseLkb87fOYZcL9gGUIp8ACvQ4OBmldiPTcw0hCPFK4_DbQz5o3pWRBJxvZCwn1aIAqENckC1MV631klyToFaHXHgoBkjA54iMsEXx4yxWf9bd2x0b3okaklzeKZ4UYiHzXWqgkx1u9qkRbzr0wJBa44YKPgogI-9vRKfb9UiGaTGTfbaGTjQ2yUHC17z4_ISije2B-bUsq-OLMlO5_6VIPa4MzUGfUK6VraGLsLwP9BHOZ5aBwI7eQZD7Nv9jWqlKNsmA0rJ8YEMMG-5HbsJMXm3ZJ4YNnu9YrGoV0ZXo0LARa-WsHsz2ZCVOBHs88HjlZ-HWamOWmo-5Dnxh4VsSS2M4ORMKgPjvTZx8gs92cPmGLkByQWwJHpgvbl-zr_73QWS4giXbZxgvdYj8FCGqsaN4kYOv6AlC-rWa_InhjCoImxntikXv-Pck2zLfNFrVpQdbvRXQE3bYFeLTDGdLmfhpFPZB7tWqs7-XqVi7aLy1TXROWubEOgypdVzDKWLUyW2Xmw5gBX8NA6qr_4qA1InJBmiecZ8b1I7D0_d-gCHuSSyPYfcK3Fq_NvsHHfEf8whG7YK57OgArGmE9FoFMZVEA6hUZT94HXJzyzmfktYhYRUULBGxGabfgHobfB6yk5PZ_XhG8hZMvb8Unq3vUYIqJPV5pb5n9tgeC5psTfW23xySuqLOPNKHQIWHkaIgXTWRJZfrVGjhshbWMyfQy1sTEJFuLGZNt0iCKrEADOMtwOndha7myfXRITfYQHB2Cc1xpI54Vlz8YLt0CUsZOG8dGMhYbx7-IRG7G-KbSie9Ivwu7zVsNiHZ_1m00]--></g></svg>