<svg xmlns="http://www.w3.org/2000/svg" xmlns:xlink="http://www.w3.org/1999/xlink" contentStyleType="text/css" data-diagram-type="CLASS" height="459px" preserveAspectRatio="none" style="width:965px;height:459px;background:#FFFFFF;" version="1.1" viewBox="0 0 965 459" width="965px" zoomAndPan="magnify"><defs/><g><g class="entity" data-entity="repo" data-source-line="4" data-uid="ent0002" id="entity_repo"><rect fill="#F1F1F1" height="37.4609" rx="2.5" ry="2.5" style="stroke:#181818;stroke-width:0.5;" width="90.1792" x="499.34" y="7"/><text fill="#000000" font-family="sans-serif" font-size="15" lengthAdjust="spacing" textLength="76.1792" x="506.34" y="22.9233">repository</text><line style="stroke:#181818;stroke-width:0.5;" x1="500.34" x2="588.5192" y1="28.4609" y2="28.4609"/></g><g class="entity" data-entity="req" data-source-line="5" data-uid="ent0003" id="entity_req"><rect fill="#F1F1F1" height="54.9219" rx="2.5" ry="2.5" style="stroke:#181818;stroke-width:0.5;" width="201.1045" x="443.88" y="140.46"/><text fill="#000000" font-family="sans-serif" font-size="15" lengthAdjust="spacing" textLength="136.5161" x="476.1742" y="156.3833">requirement issue</text><text fill="#000000" font-family="sans-serif" font-size="15" lengthAdjust="spacing" textLength="187.1045" x="450.88" y="173.8443">labels, blocked-by issues</text><line style="stroke:#181818;stroke-width:0.5;" x1="444.88" x2="643.9845" y1="179.3819" y2="179.3819"/></g><g class="entity" data-entity="sub" data-source-line="6" data-uid="ent0004" id="entity_sub"><rect fill="#F1F1F1" height="72.3828" rx="2.5" ry="2.5" style="stroke:#181818;stroke-width:0.5;" width="210.8677" x="7" y="274.39"/><text fill="#000000" font-family="sans-serif" font-size="15" lengthAdjust="spacing" textLength="70.7886" x="77.0396" y="290.3133">sub-issue</text><text fill="#000000" font-family="sans-serif" font-size="15" lengthAdjust="spacing" textLength="191.8726" x="16.4976" y="307.7743">labels, blocked-by issues,</text><text fill="#000000" font-family="sans-serif" font-size="15" lengthAdjust="spacing" textLength="196.8677" x="14" y="325.2352">open closing pull requests</text><line style="stroke:#181818;stroke-width:0.5;" x1="8" x2="216.8677" y1="330.7728" y2="330.7728"/></g><g class="entity" data-entity="labels" data-source-line="7" data-uid="ent0005" id="entity_labels"><rect fill="#F1F1F1" height="54.9219" rx="2.5" ry="2.5" style="stroke:#181818;stroke-width:0.5;" width="185.9946" x="252.44" y="283.12"/><text fill="#000000" font-family="sans-serif" font-size="15" lengthAdjust="spacing" textLength="171.9946" x="259.44" y="299.0433">label times, label actor</text><text fill="#000000" font-family="sans-serif" font-size="15" lengthAdjust="spacing" textLength="162.5464" x="264.1641" y="316.5043">(queries of one issue)</text><line style="stroke:#181818;stroke-width:0.5;" x1="253.44" x2="437.4346" y1="322.0419" y2="322.0419"/></g><g class="entity" data-entity="decide" data-source-line="8" data-uid="ent0006" id="entity_decide"><rect fill="#F1F1F1" height="54.9219" rx="2.5" ry="2.5" style="stroke:#181818;stroke-width:0.5;" width="142.9502" x="472.96" y="283.12"/><text fill="#000000" font-family="sans-serif" font-size="15" lengthAdjust="spacing" textLength="128.9502" x="479.96" y="299.0433">decide and apply</text><text fill="#000000" font-family="sans-serif" font-size="15" lengthAdjust="spacing" textLength="83.3716" x="502.7493" y="316.5043">the actions</text><line style="stroke:#181818;stroke-width:0.5;" x1="473.96" x2="614.9102" y1="322.0419" y2="322.0419"/></g><g class="entity" data-entity="notice" data-source-line="9" data-uid="ent0007" id="entity_notice"><rect fill="#F1F1F1" height="37.4609" rx="2.5" ry="2.5" style="stroke:#181818;stroke-width:0.5;" width="98.353" x="651.26" y="291.85"/><text fill="#000000" font-family="sans-serif" font-size="15" lengthAdjust="spacing" textLength="84.353" x="658.26" y="307.7733">notification</text><line style="stroke:#181818;stroke-width:0.5;" x1="652.26" x2="748.613" y1="313.3109" y2="313.3109"/></g><g class="entity" data-entity="status" data-source-line="10" data-uid="ent0008" id="entity_status"><rect fill="#F1F1F1" height="37.4609" rx="2.5" ry="2.5" style="stroke:#181818;stroke-width:0.5;" width="110.8994" x="789.98" y="291.85"/><text fill="#000000" font-family="sans-serif" font-size="15" lengthAdjust="spacing" textLength="96.8994" x="796.98" y="307.7733">cumin status</text><line style="stroke:#181818;stroke-width:0.5;" x1="790.98" x2="899.8794" y1="313.3109" y2="313.3109"/></g><g class="entity" data-entity="GMN15" data-source-line="18" data-uid="ent0016" id="entity_GMN15"><path d="M732.83,407.77 L732.83,452.6919 A0,0 0 0 0 732.83,452.6919 L958.0292,452.6919 A0,0 0 0 0 958.0292,452.6919 L958.0292,417.77 L948.0292,407.77 L849.43,407.77 L845.43,329.7 L841.43,407.77 L732.83,407.77 A0,0 0 0 0 732.83,407.77" fill="#FEFFDD" style="stroke:#181818;stroke-width:0.5;"/><path d="M948.0292,407.77 L948.0292,417.77 L958.0292,417.77 L948.0292,407.77" fill="#FEFFDD" style="stroke:#181818;stroke-width:0.5;"/><text fill="#D62728" font-family="sans-serif" font-size="15" lengthAdjust="spacing" textLength="204.1992" x="738.83" y="426.6933">cumin status lists the issue</text><text fill="#D62728" font-family="sans-serif" font-size="15" lengthAdjust="spacing" textLength="100.1367" x="738.83" y="444.1543">and the limit.</text></g><!--link repo to req--><g class="link" data-entity-1="repo" data-entity-2="req" data-source-line="11" data-uid="lnk9" id="link_repo_req"><path codeLine="11" d="M544.43,44.77 C544.43,68.96 544.43,106.07 544.43,134.08" fill="none" id="repo-to-req" style="stroke:#181818;stroke-width:1;"/><polygon fill="#181818" points="544.43,140.08,548.43,131.08,544.43,135.08,540.43,131.08,544.43,140.08" style="stroke:#181818;stroke-width:1;"/><text fill="#000000" font-family="sans-serif" font-size="15" lengthAdjust="spacing" textLength="46.3477" x="573.6099" y="89.3833">issues</text><text fill="#000000" font-family="sans-serif" font-size="15" lengthAdjust="spacing" textLength="102.7075" x="545.43" y="106.8443">(10 per page)</text></g><!--link req to sub--><g class="link" data-entity-1="req" data-entity-2="sub" data-source-line="12" data-uid="lnk10" id="link_req_sub"><path codeLine="12" d="M449.41,195.82 C418.39,204.88 383.85,215.26 352.43,225.39 C305.47,240.52 259.422,256.4664 216.082,271.9064" fill="none" id="req-to-sub" style="stroke:#181818;stroke-width:1;"/><polygon fill="#181818" points="210.43,273.92,220.2504,274.6677,215.14,272.242,217.5657,267.1316,210.43,273.92" style="stroke:#181818;stroke-width:1;"/><text fill="#000000" font-family="sans-serif" font-size="15" lengthAdjust="spacing" textLength="73.4473" x="353.43" y="240.3133">subIssues</text></g><!--link req to labels--><g class="link" data-entity-1="req" data-entity-2="labels" data-source-line="13" data-uid="lnk11" id="link_req_labels"><path codeLine="13" d="M504.58,195.68 C490.85,204.99 475.41,215.57 461.43,225.39 C434.56,244.27 409.3995,262.5233 386.6395,279.2033" fill="none" id="req-to-labels" style="stroke:#181818;stroke-width:1;"/><polygon fill="#181818" points="381.8,282.75,391.4237,280.6563,385.8329,279.7944,386.6948,274.2036,381.8,282.75" style="stroke:#181818;stroke-width:1;"/><text fill="#000000" font-family="sans-serif" font-size="15" lengthAdjust="spacing" textLength="73.4473" x="462.43" y="240.3133">subIssues</text></g><!--link req to decide--><g class="link" data-entity-1="req" data-entity-2="decide" data-source-line="14" data-uid="lnk12" id="link_req_decide"><path codeLine="14" d="M544.43,195.71 C544.43,220.74 544.43,251.89 544.43,276.89" fill="none" id="req-to-decide" style="stroke:#181818;stroke-width:1;"/><polygon fill="#181818" points="544.43,282.89,548.43,273.89,544.43,277.89,540.43,273.89,544.43,282.89" style="stroke:#181818;stroke-width:1;"/><text fill="#000000" font-family="sans-serif" font-size="15" lengthAdjust="spacing" textLength="80.4419" x="545.43" y="240.3133">read in full</text></g><!--link req to notice--><g class="link" data-entity-1="req" data-entity-2="notice" data-source-line="15" data-uid="lnk13" id="link_req_notice"><path codeLine="15" d="M593.79,195.63 C607.64,204.23 622.23,214.4 634.43,225.39 C656.65,245.39 673.7069,268.5443 685.7669,286.6743" fill="none" id="req-to-notice" style="stroke:#181818;stroke-width:1;"/><polygon fill="#181818" points="689.09,291.67,687.4358,281.9611,686.3207,287.5069,680.7749,286.3919,689.09,291.67" style="stroke:#181818;stroke-width:1;"/><text fill="#000000" font-family="sans-serif" font-size="15" lengthAdjust="spacing" textLength="109.7754" x="653.91" y="240.3133">not read in full</text></g><!--link req to status--><g class="link" data-entity-1="req" data-entity-2="status" data-source-line="16" data-uid="lnk14" id="link_req_status"><path codeLine="16" d="M645.33,180.57 C686.64,188.66 733.53,202.32 771.43,225.39 C798.86,242.08 818.3634,267.2234 831.1234,286.5434" fill="none" id="req-to-status" style="stroke:#D62728;stroke-width:2;"/><polygon fill="#D62728" points="834.43,291.55,832.8078,281.8357,831.6745,287.3778,826.1323,286.2445,834.43,291.55" style="stroke:#D62728;stroke-width:2;"/><text fill="#000000" font-family="sans-serif" font-size="15" lengthAdjust="spacing" textLength="109.7754" x="796.47" y="240.3133">not read in full</text></g><!--SRC=[XL4zJyCm4DtpAqwmKAa1MeaFLLKdXCJ2maWO7EVI7dLirtQ4og_dR4Uc4fLO8kVUXzyx-prfAvmOmEz4Pxv8Rw4NocFb2z9XBqOLdeqEhs90y4BxsgEZ_ZpfZRuH5dULQJzH1hXmQ8sdODpn0eI7-7k27KPoEA0EGDwFs6WbMbH-3gqoSezTtHupuYVreOZzsDR_YUQDDXOrICKPk9mTbOec38Nio2x5CTb0e865a7-4vEIDlcA58_HWUZ0Qi_ii6UIxYqU7aZe4eJiGrgfZeyCEemqPdM_CZ2BG9b1FKaH2mkD0_k9o74Y33oACK-9qhE8YeQutiGwifhwST74B5XrOiSLP5R78uPRCuUzBefLv3dyMcegis5zqm15wtbr1SqX6-N26yNxvTBzyM3xEMwEwZnWWXJx7vm52Qq8mGzpkr0vWBOqoRZKPRKxN08hu-I0kDjLUtoJkvgygFaEaAHeeN1SUyZZU-mC0]--></g></svg>