<svg xmlns="http://www.w3.org/2000/svg" xmlns:xlink="http://www.w3.org/1999/xlink" contentStyleType="text/css" data-diagram-type="STATE" height="317px" preserveAspectRatio="none" style="width:915px;height:317px;background:#FFFFFF;" version="1.1" viewBox="0 0 915 317" width="915px" zoomAndPan="magnify"><defs/><g><rect fill="#F1F1F1" height="40" rx="12.5" ry="12.5" style="stroke:#181818;stroke-width:0.5;" width="202.6025" x="309.54" y="7"/><text fill="#000000" font-family="sans-serif" font-size="14" lengthAdjust="spacing" textLength="192.6025" x="314.54" y="31.8467">cumin/status/implementing</text><rect fill="#F1F1F1" height="40" rx="12.5" ry="12.5" style="stroke:#181818;stroke-width:0.5;" width="218.3936" x="196.64" y="139.14"/><text fill="#000000" font-family="sans-serif" font-size="14" lengthAdjust="spacing" textLength="208.3936" x="201.64" y="163.9867">cumin/status/awaiting-checks</text><rect fill="#F1F1F1" height="40" rx="12.5" ry="12.5" style="stroke:#181818;stroke-width:0.5;" width="173.6797" x="7" y="271.27"/><text fill="#000000" font-family="sans-serif" font-size="14" lengthAdjust="spacing" textLength="163.6797" x="12" y="296.1167">cumin/status/reviewing</text><rect fill="#F1F1F1" height="40" rx="12.5" ry="12.5" style="stroke:#181818;stroke-width:0.5;" width="276.1299" x="318.77" y="271.27"/><text fill="#000000" font-family="sans-serif" font-size="14" lengthAdjust="spacing" textLength="266.1299" x="323.77" y="296.1167">cumin/status/awaiting-owner-decision</text><g class="entity" data-entity="GMN2" data-source-line="17" data-uid="ent0003" id="entity_GMN2"><path d="M679.11,139 L679.11,179.2656 L908.5734,179.2656 L908.5734,149 L898.5734,139 L679.11,139" fill="#FFFFFF" style="stroke:#181818;stroke-width:0.5;"/><path d="M898.5734,139 L898.5734,149 L908.5734,149 L898.5734,139" fill="#FFFFFF" style="stroke:#181818;stroke-width:1;"/><text fill="#D62728" font-family="sans-serif" font-size="13" lengthAdjust="spacing" textLength="203.6646" x="685.11" y="156.0669">This issue builds the red arrow.</text><text fill="#D62728" font-family="sans-serif" font-size="13" lengthAdjust="spacing" textLength="208.4634" x="685.11" y="171.1997">UNKNOWN waits for a later poll.</text></g><!--link Implementing to Checks--><g class="link" data-entity-1="Implementing" data-entity-2="Checks" data-source-line="10" data-uid="lnk2" id="link_Implementing_Checks"><path d="M309.34,32.37 C238.84,37.78 153.62,49.89 130.84,77 C103.53,109.5 140.3388,128.2968 190.3488,140.4168" fill="none" id="Implementing-to-Checks" style="stroke:#181818;stroke-width:1;"/><polygon fill="#181818" points="196.18,141.83,188.3753,135.8227,191.3207,140.6523,186.4911,143.5977,196.18,141.83" style="stroke:#181818;stroke-width:1;"/><text fill="#000000" font-family="sans-serif" font-size="13" lengthAdjust="spacing" textLength="78.7681" x="157.84" y="90.0669">I2 run done,</text><text fill="#000000" font-family="sans-serif" font-size="13" lengthAdjust="spacing" textLength="130.7681" x="131.84" y="105.1997">pull request verified</text></g><!--link Checks to Implementing--><g class="link" data-entity-1="Checks" data-entity-2="Implementing" data-source-line="12" data-uid="lnk4" id="link_Checks_Implementing"><path d="M299.28,138.79 C294.6,121.24 291.01,95.37 302.84,77 C311.2,64.02 318.5968,57.1696 332.4168,50.1096" fill="none" id="Checks-to-Implementing" style="stroke:#181818;stroke-width:1;"/><polygon fill="#181818" points="337.76,47.38,327.9255,47.9123,333.3074,49.6546,331.565,55.0365,337.76,47.38" style="stroke:#181818;stroke-width:1;"/><text fill="#000000" font-family="sans-serif" font-size="13" lengthAdjust="spacing" textLength="169.8506" x="303.84" y="90.0669">I4 a required check failed,</text><text fill="#000000" font-family="sans-serif" font-size="13" lengthAdjust="spacing" textLength="69.7163" x="353.9071" y="105.1997">fix request</text></g><!--link Checks to Implementing--><g class="link" data-entity-1="Checks" data-entity-2="Implementing" data-source-line="13" data-uid="lnk5" id="link_Checks_Implementing"><path d="M411.97,138.74 C441.88,130.99 468.77,121.03 477.84,109 C486.4,97.65 484.28,89.69 477.84,77 C471.64,64.8 465.7751,58.2833 454.6151,50.6633" fill="none" id="Checks-to-Implementing-1" style="stroke:#D62728;stroke-width:2;"/><polygon fill="#D62728" points="449.66,47.28,454.8371,55.6584,453.7893,50.0994,459.3482,49.0516,449.66,47.28" style="stroke:#D62728;stroke-width:2;"/><text fill="#D62728" font-family="sans-serif" font-size="13" lengthAdjust="spacing" textLength="252.0146" x="484.49" y="90.0669">new row: pull request is CONFLICTING,</text><text fill="#D62728" font-family="sans-serif" font-size="13" lengthAdjust="spacing" textLength="170.1743" x="525.4102" y="105.1997">conflict resolution request</text></g><!--link Checks to Reviewing--><g class="link" data-entity-1="Checks" data-entity-2="Reviewing" data-source-line="11" data-uid="lnk3" id="link_Checks_Reviewing"><path d="M196.22,178.15 C160.32,186.12 126.41,196.6 113.84,209.27 C97.73,225.52 94.0699,246.573 93.4899,264.893" fill="none" id="Checks-to-Reviewing" style="stroke:#181818;stroke-width:1;"/><polygon fill="#181818" points="93.3,270.89,97.5828,262.0211,93.4582,265.8925,89.5868,261.7679,93.3,270.89" style="stroke:#181818;stroke-width:1;"/><text fill="#000000" font-family="sans-serif" font-size="13" lengthAdjust="spacing" textLength="170.3901" x="114.84" y="229.8369">I3 required checks passed</text></g><!--link Checks to Decision--><g class="link" data-entity-1="Checks" data-entity-2="Decision" data-source-line="14" data-uid="lnk6" id="link_Checks_Decision"><path d="M298.88,179.48 C293.81,197.28 289.86,223.52 302.84,241.27 C312.28,254.18 319.7767,261.1002 334.0867,268.2102" fill="none" id="Checks-to-Decision" style="stroke:#181818;stroke-width:1;"/><polygon fill="#181818" points="339.46,270.88,333.1799,263.2932,334.9822,268.6552,329.6202,270.4576,339.46,270.88" style="stroke:#181818;stroke-width:1;"/><text fill="#000000" font-family="sans-serif" font-size="13" lengthAdjust="spacing" textLength="213.2114" x="303.84" y="222.3369">new row: required checks do not</text><text fill="#000000" font-family="sans-serif" font-size="13" lengthAdjust="spacing" textLength="173.9639" x="323.4638" y="237.4697">report within the wait time</text></g><!--link Checks to Decision--><g class="link" data-entity-1="Checks" data-entity-2="Decision" data-source-line="15" data-uid="lnk7" id="link_Checks_Decision"><path d="M415.32,172.31 C461.48,179.91 507.81,191.69 521.84,209.27 C530.71,220.39 528.18,228.54 521.84,241.27 C515.79,253.41 510.0464,259.9007 499.0964,267.5607" fill="none" id="Checks-to-Decision-1" style="stroke:#181818;stroke-width:1;"/><polygon fill="#181818" points="494.18,271,503.8475,269.1187,498.277,268.1339,499.2618,262.5635,494.18,271" style="stroke:#181818;stroke-width:1;"/><text fill="#000000" font-family="sans-serif" font-size="13" lengthAdjust="spacing" textLength="92.7266" x="528.58" y="222.3369">I4 fix requests</text><text fill="#000000" font-family="sans-serif" font-size="13" lengthAdjust="spacing" textLength="71.2588" x="539.3139" y="237.4697">at the limit</text></g><!--link Implementing to GMN2--><g class="link" data-entity-1="Implementing" data-entity-2="GMN2" data-source-line="17" data-uid="lnk4" id="link_Implementing_GMN2"><path d="M512.59,33.31 C596.87,39.43 708.62,52.04 745.84,77 C767.59,91.59 780.9,119.64 787.83,138.62" fill="none" id="Implementing-GMN2" style="stroke:#181818;stroke-width:1;stroke-dasharray:7,7;"/></g><!--SRC=[VP91RzGm48Nl-HMZzjgmqe80hQgzj5gq0gKIAkB0Sd3ZIJEgxGaUku5_Zsqss-osDAVOdk-zcMVtf17G3k4FQ9JMqn28NIKFv0RbbGNfbUQHt3rqoWZEJZHsAfgmOHSQPH54EQa5FNLL9K45XBCsMdABl8Yo83iOjEX24Zi39R2TRRn8g55HFgpR7ji7AT1L-NsntECZuJYfVvrMhqlpwD3N6bkID7WXh_UBgfft27Mzthl32hPByD61PeSNEpT4Oy3ZhuWIu357GAYhVN7c3iraz6qf9OyQ_Wq6Wn8v1ewS4_CEr0cLxeCCwkJUqU_9_23nu_pw_VB3ykF57HlzyxdWPSk6_MfVjNOuWkTn1KUJK8hxfjbysLxTRfjFoUc4QjbrXjgG064JyykPsCj5ALtFPvfoJVO7lzCaD8FZi7CU1_O1HWezEGWzGhum26JnFv8febaGidCg5CwGfL0bKOGx3e4jS7USnlccV1MSfdBRfmH892Oqaj5I17EtogVktno6V4P-QputDz-RqhH0npvTdqclqCF0nZo1w7IU5_y2]--></g></svg>