<svg xmlns="http://www.w3.org/2000/svg" xmlns:xlink="http://www.w3.org/1999/xlink" contentStyleType="text/css" data-diagram-type="DESCRIPTION" height="597px" preserveAspectRatio="none" style="width:1049px;height:597px;background:#FFFFFF;" version="1.1" viewBox="0 0 1049 597" width="1049px" zoomAndPan="magnify"><defs/><g><!--cluster tools--><g class="cluster" data-entity="tools" data-source-line="10" data-uid="ent0004" id="cluster_tools"><rect fill="none" height="280.19" rx="2.5" ry="2.5" style="stroke:#181818;stroke-width:1;" width="380" x="84.98" y="169.09"/><text fill="#000000" font-family="sans-serif" font-size="14" font-weight="bold" lengthAdjust="spacing" textLength="104.0635" x="222.9483" y="184.0851">general tools</text><text fill="#000000" font-family="sans-serif" font-size="14" font-weight="bold" lengthAdjust="spacing" textLength="58.4951" x="245.7324" y="200.382">scripts/</text></g><!--entity health--><g class="entity" data-entity="health" data-source-line="11" data-uid="ent0005" id="entity_health"><rect fill="#F1F1F1" height="52.5938" rx="2.5" ry="2.5" style="stroke:#181818;stroke-width:0.5;" width="137.0791" x="114.44" y="372.69"/><text fill="#000000" font-family="sans-serif" font-size="14" lengthAdjust="spacing" textLength="112.957" x="124.44" y="395.6851">cumin-health.sh</text><text fill="#000000" font-family="sans-serif" font-size="14" lengthAdjust="spacing" textLength="117.0791" x="124.44" y="411.982">is cumin running</text></g><!--entity replace--><g class="entity" data-entity="replace" data-source-line="12" data-uid="ent0006" id="entity_replace"><rect fill="#F1F1F1" height="52.5938" rx="2.5" ry="2.5" style="stroke:#181818;stroke-width:0.5;" width="148.1807" x="108.89" y="228.09"/><text fill="#000000" font-family="sans-serif" font-size="14" lengthAdjust="spacing" textLength="121.9736" x="118.89" y="251.0851">replace-binary.sh</text><text fill="#000000" font-family="sans-serif" font-size="14" lengthAdjust="spacing" textLength="128.1807" x="118.89" y="267.382">replace the binary</text></g><!--entity live--><g class="entity" data-entity="live" data-source-line="13" data-uid="ent0007" id="entity_live"><rect fill="#F1F1F1" height="52.5938" rx="2.5" ry="2.5" style="stroke:#181818;stroke-width:0.5;" width="129.6143" x="292.17" y="228.09"/><text fill="#000000" font-family="sans-serif" font-size="14" lengthAdjust="spacing" textLength="109.6143" x="302.17" y="251.0851">live-scenario.sh</text><text fill="#000000" font-family="sans-serif" font-size="14" lengthAdjust="spacing" textLength="83.665" x="302.17" y="267.382">(later issue)</text></g><!--entity person--><g class="entity" data-entity="person" data-source-line="7" data-uid="ent0002" id="entity_person"><ellipse cx="369.984" cy="14" fill="#F1F1F1" rx="8" ry="8" style="stroke:#181818;stroke-width:0.5;"/><path d="M369.984,22 L369.984,49 M356.984,30 L382.984,30 M369.984,49 L356.984,64 M369.984,49 L382.984,64" fill="none" style="stroke:#181818;stroke-width:0.5;"/><text fill="#000000" font-family="sans-serif" font-size="14" lengthAdjust="spacing" textLength="83.7881" x="328.09" y="78.4951">Maintainer /</text><text fill="#000000" font-family="sans-serif" font-size="14" lengthAdjust="spacing" textLength="62.665" x="328.09" y="94.792">Operator</text></g><!--entity session--><g class="entity" data-entity="session" data-source-line="8" data-uid="ent0003" id="entity_session"><rect fill="#F1F1F1" height="52.5938" rx="2.5" ry="2.5" style="stroke:#181818;stroke-width:0.5;" width="191.9512" x="447.01" y="25.5"/><text fill="#000000" font-family="sans-serif" font-size="14" lengthAdjust="spacing" textLength="145.1816" x="457.01" y="48.4951">Claude Code session</text><text fill="#000000" font-family="sans-serif" font-size="14" lengthAdjust="spacing" textLength="171.9512" x="457.01" y="64.792">plugin cumin-maintainer</text></g><!--entity run--><g class="entity" data-entity="run" data-source-line="16" data-uid="ent0008" id="entity_run"><rect fill="#F1F1F1" height="52.5938" rx="2.5" ry="2.5" style="stroke:#181818;stroke-width:0.5;" width="268.3428" x="488.81" y="372.69"/><text fill="#000000" font-family="sans-serif" font-size="14" lengthAdjust="spacing" textLength="70.9229" x="498.81" y="395.6851">cumin run</text><text fill="#000000" font-family="sans-serif" font-size="14" lengthAdjust="spacing" textLength="248.3428" x="498.81" y="411.982">LaunchAgent dev.cloveclove.cumin</text></g><!--entity monitor--><g class="entity" data-entity="monitor" data-source-line="17" data-uid="ent0009" id="entity_monitor"><path d="M361.93,539.18 L361.93,586.7738 A2.5,2.5 0 0 0 364.43,589.2738 L525.5345,589.2738 A2.5,2.5 0 0 0 528.0345,586.7738 L528.0345,546.68 L518.0345,536.68 L364.43,536.68 A2.5,2.5 0 0 0 361.93,539.18" fill="#F1F1F1" style="stroke:#181818;stroke-width:0.5;"/><path d="M518.0345,536.68 L518.0345,544.18 A2.5,2.5 0 0 0 520.5345,546.68 L528.0345,546.68" fill="#F1F1F1" style="stroke:#181818;stroke-width:0.5;"/><text fill="#000000" font-family="sans-serif" font-size="14" lengthAdjust="spacing" textLength="87.8486" x="371.93" y="559.6751">monitor.json</text><text fill="#000000" font-family="sans-serif" font-size="14" lengthAdjust="spacing" textLength="146.1045" x="371.93" y="575.972">~/.local/state/cumin/</text></g><!--entity log--><g class="entity" data-entity="log" data-source-line="18" data-uid="ent0010" id="entity_log"><path d="M604,539.18 L604,586.7738 A2.5,2.5 0 0 0 606.5,589.2738 L821.4717,589.2738 A2.5,2.5 0 0 0 823.9717,586.7738 L823.9717,546.68 L813.9717,536.68 L606.5,536.68 A2.5,2.5 0 0 0 604,539.18" fill="#F1F1F1" style="stroke:#181818;stroke-width:0.5;"/><path d="M813.9717,536.68 L813.9717,544.18 A2.5,2.5 0 0 0 816.4717,546.68 L823.9717,546.68" fill="#F1F1F1" style="stroke:#181818;stroke-width:0.5;"/><text fill="#000000" font-family="sans-serif" font-size="14" lengthAdjust="spacing" textLength="68.7627" x="614" y="559.6751">cumin.log</text><text fill="#000000" font-family="sans-serif" font-size="14" lengthAdjust="spacing" textLength="199.9717" x="614" y="575.972">StandardOutPath of the plist</text></g><!--entity settings--><g class="entity" data-entity="settings" data-source-line="19" data-uid="ent0011" id="entity_settings"><path d="M929.9,375.19 L929.9,422.7837 A2.5,2.5 0 0 0 932.4,425.2837 L1039.5553,425.2837 A2.5,2.5 0 0 0 1042.0553,422.7837 L1042.0553,382.69 L1032.0553,372.69 L932.4,372.69 A2.5,2.5 0 0 0 929.9,375.19" fill="#F1F1F1" style="stroke:#181818;stroke-width:0.5;"/><path d="M1032.0553,372.69 L1032.0553,380.19 A2.5,2.5 0 0 0 1034.5553,382.69 L1042.0553,382.69" fill="#F1F1F1" style="stroke:#181818;stroke-width:0.5;"/><text fill="#000000" font-family="sans-serif" font-size="14" lengthAdjust="spacing" textLength="78.873" x="939.9" y="395.6851">config.toml</text><text fill="#000000" font-family="sans-serif" font-size="14" lengthAdjust="spacing" textLength="92.1553" x="939.9" y="411.982">Host settings</text></g><!--entity github--><g class="entity" data-entity="github" data-source-line="20" data-uid="ent0012" id="entity_github"><path d="M825.3728,385.3566 C829.0484,378.5491 834.9977,377.1033 840.5498,383.1392 C844.5968,375.4239 852.0333,374.0761 856.955,382.2354 C861.4228,374.2854 868.5842,374.6597 872.0462,383.1582 C877.9996,376.9112 884.5269,376.4288 888.6646,385.1711 C895.4169,389.3326 896.5634,396.2538 888.8718,400.6091 C896.3977,405.9249 896.2528,410.8806 889.0119,416.328 C885.0851,425.3049 879.4691,424.5545 873.317,418.6797 C871.7915,427.5309 864.4353,430.5242 857.5297,424.3223 C850.6079,432.0787 842.1648,429.4411 840.4035,419.366 C833.5936,426.0882 828.6789,423.3311 825.332,415.7237 C816.5406,414.37 813.0782,407.6641 819.0886,400.3134 C814.6178,392.3573 816.39,387.6602 825.3728,385.3566" fill="#F1F1F1" style="stroke:#181818;stroke-width:0.5;"/><text fill="#000000" font-family="sans-serif" font-size="14" lengthAdjust="spacing" textLength="48.5146" x="831.72" y="403.8351">GitHub</text></g><g class="entity" data-entity="GMN23" data-source-line="36" data-uid="ent0024" id="entity_GMN23"><path d="M6,535.28 L6,590.6784 L243.9629,590.6784 L243.9629,545.28 L233.9629,535.28 L6,535.28" fill="#FEFFDD" style="stroke:#181818;stroke-width:0.5;"/><path d="M233.9629,535.28 L233.9629,545.28 L243.9629,545.28 L233.9629,535.28" fill="#FEFFDD" style="stroke:#181818;stroke-width:1;"/><text fill="#000000" font-family="sans-serif" font-size="13" lengthAdjust="spacing" textLength="216.9629" x="12" y="552.3469">Reads only. Asks GitHub nothing.</text><text fill="#000000" font-family="sans-serif" font-size="13" lengthAdjust="spacing" textLength="209.0728" x="12" y="567.4797">Exit code 0: the last poll is fresh</text><text fill="#000000" font-family="sans-serif" font-size="13" lengthAdjust="spacing" textLength="112.144" x="12" y="582.6125">and has no error.</text></g><!--link person to tools--><g class="link" data-entity-1="person" data-entity-2="tools" data-source-line="22" data-uid="lnk13" id="link_person_tools"><path d="M371.8,98.43 C374.79,115.28 381.12,133.16 393.98,145.09 C408.55,158.62 423.88,139.09 437.98,153.09 C441.9425,157.0237 445.2175,161.508 447.9142,166.3476 C448.2513,166.9526 448.5793,167.5631 448.8986,168.1788 C448.9784,168.3327 446.3349,163.1403 446.4136,163.2948" fill="none" id="person-to-tools" style="stroke:#181818;stroke-width:1;"/><polygon fill="#181818" points="449.1363,168.6415,448.6168,158.8064,446.8674,164.186,441.4878,162.4366,449.1363,168.6415" style="stroke:#181818;stroke-width:1;"/><text fill="#000000" font-family="sans-serif" font-size="13" lengthAdjust="spacing" textLength="101.3022" x="394.98" y="141.1569">from a terminal</text></g><!--link session to tools--><g class="link" data-entity-1="session" data-entity-2="tools" data-source-line="23" data-uid="lnk14" id="link_session_tools"><path d="M532.09,78.2 C520.7,104.77 502.3275,147.625 486.605,184.2975 C478.7438,202.6337 471.545,219.4244 466.2128,231.8609 C465.8796,232.6382 465.5536,233.3985 465.2352,234.1411 C465.1556,234.3267 467.4408,228.9968 467.3622,229.1802" fill="none" id="session-to-tools" style="stroke:#181818;stroke-width:1;"/><polygon fill="#181818" points="464.9978,234.6947,472.2207,227.9992,466.9681,230.0993,464.868,224.8467,464.9978,234.6947" style="stroke:#181818;stroke-width:1;"/><text fill="#000000" font-family="sans-serif" font-size="13" lengthAdjust="spacing" textLength="22.3374" x="511.21" y="141.1569">call</text></g><!--link run to monitor--><g class="link" data-entity-1="run" data-entity-2="monitor" data-source-line="25" data-uid="lnk15" id="link_run_monitor"><path d="M606.5,425.5 C590.95,448.25 566.05,481.53 538.98,505.28 C525.8,516.84 515.1154,524.3673 500.2254,533.1673" fill="none" id="run-to-monitor" style="stroke:#181818;stroke-width:1;"/><polygon fill="#181818" points="495.06,536.22,504.8432,535.0845,499.3645,533.6761,500.7729,528.1973,495.06,536.22" style="stroke:#181818;stroke-width:1;"/><text fill="#000000" font-family="sans-serif" font-size="13" lengthAdjust="spacing" textLength="136.2207" x="570.89" y="493.8469">write after every poll</text></g><!--link run to log--><g class="link" data-entity-1="run" data-entity-2="log" data-source-line="26" data-uid="lnk16" id="link_run_log"><path d="M672.07,425.69 C689.59,437.62 707.36,453.57 716.98,473.28 C726.58,492.94 725.7751,512.1942 722.1151,530.6842" fill="none" id="run-to-log" style="stroke:#181818;stroke-width:1;"/><polygon fill="#181818" points="720.95,536.57,726.6215,528.518,721.9209,531.6652,718.7737,526.9646,720.95,536.57" style="stroke:#181818;stroke-width:1;"/><text fill="#000000" font-family="sans-serif" font-size="13" lengthAdjust="spacing" textLength="32.6841" x="724.87" y="493.8469">write</text></g><!--link run to github--><g class="link" data-entity-1="run" data-entity-2="github" data-source-line="27" data-uid="lnk17" id="link_run_github"><path d="M757.51,398.98 C779.1,398.98 793.84,398.98 810.68,398.98" fill="none" id="run-to-github" style="stroke:#181818;stroke-width:1;"/><polygon fill="#181818" points="816.68,398.98,807.68,394.98,811.68,398.98,807.68,402.98,816.68,398.98" style="stroke:#181818;stroke-width:1;"/><text fill="#000000" font-family="sans-serif" font-size="13" lengthAdjust="spacing" textLength="23.4292" x="775.44" y="392.0469">poll</text></g><!--link health to monitor--><g class="link" data-entity-1="health" data-entity-2="monitor" data-source-line="29" data-uid="lnk18" id="link_health_monitor"><path d="M173.75,425.48 C167.08,448.85 162.04,483.1 179.98,505.28 C191.57,519.62 282.3967,536.7038 355.6767,548.5338" fill="none" id="health-to-monitor" style="stroke:#181818;stroke-width:1;"/><polygon fill="#181818" points="361.6,549.49,353.3525,544.1068,356.6639,548.6931,352.0775,552.0045,361.6,549.49" style="stroke:#181818;stroke-width:1;"/><text fill="#000000" font-family="sans-serif" font-size="13" lengthAdjust="spacing" textLength="159.853" x="199.5977" y="486.3469">read: last poll, its errors,</text><text fill="#000000" font-family="sans-serif" font-size="13" lengthAdjust="spacing" textLength="197.0884" x="180.98" y="501.4797">agents at work, waiting issues</text></g><!--link health to log--><g class="link" data-entity-1="health" data-entity-2="log" data-source-line="30" data-uid="lnk19" id="link_health_log"><path d="M251.66,417.11 C291.91,429.05 342.62,447.51 382.98,473.28 C399.93,484.11 397.2,495.88 414.98,505.28 C431.91,514.23 519.6723,530.2498 597.7223,543.3098" fill="none" id="health-to-log" style="stroke:#181818;stroke-width:1;"/><polygon fill="#181818" points="603.64,544.3,595.4235,538.8695,598.7086,543.4748,594.1033,546.7598,603.64,544.3" style="stroke:#181818;stroke-width:1;"/><text fill="#000000" font-family="sans-serif" font-size="13" lengthAdjust="spacing" textLength="114.7339" x="415.98" y="486.3469">read: errors since</text><text fill="#000000" font-family="sans-serif" font-size="13" lengthAdjust="spacing" textLength="83.3257" x="431.6841" y="501.4797">the last start</text></g><!--link replace to run--><g class="link" data-entity-1="replace" data-entity-2="run" data-source-line="31" data-uid="lnk20" id="link_replace_run"><path d="M257.12,279.42 C336.6,305.17 456.5822,344.0604 537.9922,370.4404" fill="none" id="replace-to-run" style="stroke:#181818;stroke-width:1;"/><polygon fill="#181818" points="543.7,372.29,536.3713,365.7105,538.9435,370.7487,533.9052,373.3209,543.7,372.29" style="stroke:#181818;stroke-width:1;"/><text fill="#000000" font-family="sans-serif" font-size="13" lengthAdjust="spacing" textLength="125.5186" x="443.39" y="323.7569">stop after the runs,</text><text fill="#000000" font-family="sans-serif" font-size="13" lengthAdjust="spacing" textLength="90.7969" x="460.7508" y="338.8897">install, restart</text></g><!--link replace to health--><g class="link" data-entity-1="replace" data-entity-2="health" data-source-line="32" data-uid="lnk21" id="link_replace_health"><path d="M182.98,280.88 C182.98,306.68 182.98,340.34 182.98,366.23" fill="none" id="replace-to-health" style="stroke:#181818;stroke-width:1;"/><polygon fill="#181818" points="182.98,372.23,186.98,363.23,182.98,367.23,178.98,363.23,182.98,372.23" style="stroke:#181818;stroke-width:1;"/><text fill="#000000" font-family="sans-serif" font-size="13" lengthAdjust="spacing" textLength="131.0601" x="183.98" y="331.2569">call: check two polls</text></g><!--link live to settings--><g class="link" data-entity-1="live" data-entity-2="settings" data-source-line="33" data-uid="lnk22" id="link_live_settings"><path d="M422.27,279.64 C423.51,280 424.75,280.35 425.98,280.69 C479.07,295.33 859.77,358.52 912.98,372.69 C918.43,374.14 918.324,373.9974 923.914,375.7474" fill="none" id="live-to-settings" style="stroke:#181818;stroke-width:1;stroke-dasharray:7,7;"/><polygon fill="#181818" points="929.64,377.54,922.2461,371.0338,924.8684,376.0462,919.856,378.6685,929.64,377.54" style="stroke:#181818;stroke-width:1;"/><text fill="#000000" font-family="sans-serif" font-size="13" lengthAdjust="spacing" textLength="147.5449" x="747.4" y="323.7569">switch to the sandbox,</text><text fill="#000000" font-family="sans-serif" font-size="13" lengthAdjust="spacing" textLength="59.4839" x="791.4305" y="338.8897">and back</text></g><!--link health to GMN23--><g class="link" data-entity-1="health" data-entity-2="GMN23" data-source-line="36" data-uid="lnk25" id="link_health_GMN23"><path d="M168.77,425.51 C161.5,439.34 152.96,456.9 146.98,473.28 C139.59,493.55 133.84,517.32 130.08,535.15" fill="none" id="health-GMN23" style="stroke:#181818;stroke-width:1;stroke-dasharray:7,7;"/></g><!--SRC=[PLJ1Zjms3BthAuWDq3J0sDFqqCC4210aQNDeco2v-iAnERQoCcc8yauMHVuzbEGPx3I7DNQeznx9HqhFeLzdpt2MUA_GG9e8HcAA622910KvbU07qNI0yoJGOx2mnUOT80yMmmI4_GJ2195mC5A4Va8UILlt7Dw99I4s_cGgJT5jvs5d6HRV6wrg_9mR8sN-P-A1uW7Yog1zz4lIVIonPl0uHforrGasYIYIBbL7MaHzalZOEhttlA21GISSvEnvX1C6fISd0vrm3UbFuVGlpWIAh8rIz2Vdi3STkFi7FIVxemZxZZykLgx5xm0Lx7yLTf7wPBq7Whkt0TU1uAtOHqdL2tUyX7KqoulnpNoLAn8Ro3qLkV6auui31Lzz-iy1F25KvOamfCcCwTZhDcPpaAtlGgtdjqppAs1FpT4pccUPkuMAdJLSs5lubXxy0pNQaw6y5FQl0PCvvLLNUb686UE-tpHuhQtZlt7bVdfZBISRnaFR1tcWycaBgkPUsPryPix2URhjLyt6_lBivUz_lDgtGMn7zveizRwmgbSRUAEM0uEE7N-nGWQCmySrVS8qNPPd2LvJhLd62qluvCSsoHmwpdV29fQIMQhR-EeFPoMl0zpzvTE7zLYEHf-czUXSNH9ecjVRy0vmYZ83WXbb9M5msnBSOFAjCzFM6jrQiVWv-aI0f-moFL1yX4KCUG5QvHTGZKK_JiaEQZbsLk2kBiF_jFDTFa10wpAZTk2J0iKeKNSTOnwIvbkN7uyTdD7dtkkizQbYBQAgLJgevvuwpZONVHjMJEwoQvcKgprON9QjktAVLywfFHi-5nJfP-AMk5fctudwUqXdAJseo_i7RVlwEgkSvUoJlLz9IXAxzCDHlkKMxNaxOd_l78kvV9HaWy_hSRqxd-jpn-6nXJTgJsYTE1X-Cl7M8E-_-GHzVW5-Ey2ruLoCMMMp9yr2ETLaQy9IBMgTFN1PXdu0]--></g></svg>